<svg xmlns="http://www.w3.org/2000/svg" width="174.317" height="66.986"><path data-name="Path 1774" d="M26.608 34.076v-.72a.11.11 0 01.124-.124h.287q1.006 0 1.006-1.056v-5.407a.11.11 0 01.124-.124h.8a.11.11 0 01.124.124v3.149a.717.717 0 00.305.633 1.4 1.4 0 00.813.212h1.068a.622.622 0 00.453-.143.724.724 0 00.143-.516v-3.332a.11.11 0 01.124-.124h.8a.11.11 0 01.124.124v3.146a.72.72 0 00.305.633 1.4 1.4 0 00.814.212h1.306a.625.625 0 00.454-.143.73.73 0 00.143-.516v-2.262a.11.11 0 01.124-.125h.8a.111.111 0 01.124.125v2.076a.724.724 0 00.3.633 1.346 1.346 0 00.8.212h.311a.625.625 0 00.454-.143.73.73 0 00.143-.516v-2.262a.111.111 0 01.124-.125h.8a.11.11 0 01.124.125v2.076a.724.724 0 00.3.633 1.353 1.353 0 00.8.212h.311a.622.622 0 00.453-.143.723.723 0 00.144-.516v-3.332a.11.11 0 01.124-.124h.8a.11.11 0 01.124.124v3.392a1.759 1.759 0 01-.336 1.188 1.434 1.434 0 01-1.12.379h-.6a1.443 1.443 0 01-.7-.161 1.093 1.093 0 01-.46-.484 1.287 1.287 0 01-1.293.645h-.6a1.434 1.434 0 01-.7-.161 1.086 1.086 0 01-.46-.484 1.288 1.288 0 01-1.293.645h-1.618a1.435 1.435 0 01-.7-.161 1.093 1.093 0 01-.46-.484 1.285 1.285 0 01-1.292.645h-1.378a1.25 1.25 0 01-.994-.4v.82a2.1 2.1 0 01-.509 1.529 1.993 1.993 0 01-1.491.521h-.336a.11.11 0 01-.137-.125zm51.493-.236a1.373 1.373 0 01-.521-1.218 1.571 1.571 0 01.229-.882 1.807 1.807 0 01.578-.558 3.086 3.086 0 01.757-.329q.41-.12.784-.193a3.274 3.274 0 00-.261-.857 3.041 3.041 0 00-.4-.628 3.109 3.109 0 00-.492-.473q-.266-.2-.54-.4a.434.434 0 01-.143-.129.223.223 0 01-.031-.119v-.745a.262.262 0 01.124-.249c.1-.057.229-.124.39-.2a4.7 4.7 0 01.56-.212 5.142 5.142 0 01.7-.161 5.091 5.091 0 01.808-.061 3.057 3.057 0 011.963.521 1.74 1.74 0 01.633 1.418 2.2 2.2 0 01-.124.745 3.127 3.127 0 01-.317.646 3 3 0 01-.441.541 3.7 3.7 0 01-.484.4c.091.017.181.032.273.044a2.009 2.009 0 00.261.019h2.62a.625.625 0 00.454-.143.73.73 0 00.143-.516v-3.332a.11.11 0 01.124-.124h.8a.11.11 0 01.124.124v3.392a1.759 1.759 0 01-.336 1.188 1.431 1.431 0 01-1.118.379H82.38a3.759 3.759 0 01-.77-.087 2.135 2.135 0 01-.733-.3 7.9 7.9 0 01-.758.243 7.092 7.092 0 00-.72.229 1.735 1.735 0 00-.535.312.628.628 0 00-.212.5.512.512 0 00.231.453 1.6 1.6 0 00.838.156h1.193a.11.11 0 01.124.124v.72a.11.11 0 01-.124.124h-1.287a2.69 2.69 0 01-1.526-.362zm-71.74.075v-.906a.111.111 0 01.125-.125h.844a.11.11 0 01.124.125v.906a.11.11 0 01-.124.125h-.844a.111.111 0 01-.125-.122zm1.518 0v-.906a.11.11 0 01.124-.125h.844a.11.11 0 01.124.125v.906a.11.11 0 01-.124.125h-.844a.11.11 0 01-.123-.122zm9.271 0v-.906a.111.111 0 01.125-.125h.844a.11.11 0 01.124.125v.906a.11.11 0 01-.124.125h-.844a.111.111 0 01-.124-.122zm1.518 0v-.906a.11.11 0 01.124-.125h.844a.11.11 0 01.124.125v.906a.11.11 0 01-.124.125h-.844a.11.11 0 01-.123-.122zm-6.517-.024v-.908a.11.11 0 01.124-.124h.844a.11.11 0 01.124.124v.908a.11.11 0 01-.124.124h-.844a.11.11 0 01-.124-.124zm73.159-.012v-.908a.11.11 0 01.124-.124h.845a.11.11 0 01.124.124v.908a.11.11 0 01-.124.124h-.845a.11.11 0 01-.124-.124zm11.849-2.231a1.824 1.824 0 01-.757-.526 1.134 1.134 0 01-.672.5 3.036 3.036 0 01-.758.105h-.809a1.435 1.435 0 01-.7-.161 1.093 1.093 0 01-.46-.484 1.285 1.285 0 01-1.292.645h-1.854a1.434 1.434 0 01-1.118-.379 1.761 1.761 0 01-.336-1.188v-6.759a.11.11 0 01.125-.125h.794a.11.11 0 01.124.125v6.7a.723.723 0 00.144.516.62.62 0 00.453.143h1.484a.622.622 0 00.453-.143.724.724 0 00.143-.516v-3.332a.11.11 0 01.124-.124h.8a.109.109 0 01.124.124v3.149a.72.72 0 00.305.633 1.4 1.4 0 00.814.212h.772a.721.721 0 00.273-.056.662.662 0 00.248-.187.993.993 0 00.181-.348 1.841 1.841 0 00.068-.541 2.533 2.533 0 01-.012-.243v-.255a2.858 2.858 0 01.633-2.07 2.338 2.338 0 011.739-.64 2.337 2.337 0 011.739.64 2.858 2.858 0 01.633 2.07 3.915 3.915 0 01-.168 1.218 2.2 2.2 0 01-.472.832 1.839 1.839 0 01-.745.478 2.953 2.953 0 01-.988.156 2.928 2.928 0 01-1.032-.17zM4.08 31.499a1.156 1.156 0 01-.454-.764 1.592 1.592 0 01-.6.335 2.456 2.456 0 01-.757.112 2.887 2.887 0 01-.9-.136 1.955 1.955 0 01-.72-.417 1.94 1.94 0 01-.479-.708 2.693 2.693 0 01-.173-1.013 3.034 3.034 0 01.2-1.169 2.1 2.1 0 01.523-.764 1.927 1.927 0 01.75-.423 3.008 3.008 0 01.889-.131h1.217v-.534a.11.11 0 01.124-.124h.8a.11.11 0 01.124.124v4.214a.73.73 0 00.143.516.624.624 0 00.453.143h1.481a.622.622 0 00.453-.143.724.724 0 00.143-.516v-3.332a.11.11 0 01.124-.124h.8a.11.11 0 01.124.124v3.149a.72.72 0 00.305.633 1.4 1.4 0 00.814.212h3.677a2.245 2.245 0 00.558-.056.6.6 0 00.324-.193.761.761 0 00.149-.367 3.724 3.724 0 00.037-.566 4.183 4.183 0 00-.088-.889 2.04 2.04 0 00-.278-.7 1.275 1.275 0 00-.516-.448 1.877 1.877 0 00-.808-.155 1.735 1.735 0 00-.777.173 2.1 2.1 0 00-.628.473.114.114 0 01-.173.012l-.548-.448c-.075-.057-.087-.116-.037-.173a2.885 2.885 0 01.864-.72 2.572 2.572 0 011.262-.285 3.19 3.19 0 011.4.267 2.3 2.3 0 01.865.7 2.634 2.634 0 01.441 1.008 5.555 5.555 0 01.125 1.181c0 .075 0 .144-.007.211s-.007.133-.005.2a.691.691 0 00.329.577 1.444 1.444 0 00.789.193h1.07a.622.622 0 00.453-.143.724.724 0 00.143-.516v-3.332a.11.11 0 01.124-.124h.8a.11.11 0 01.124.124v3.151a.72.72 0 00.305.633 1.4 1.4 0 00.814.212h1.006a.622.622 0 00.453-.143.724.724 0 00.143-.516v-3.332a.11.11 0 01.125-.124h.794a.109.109 0 01.124.124v3.392a1.76 1.76 0 01-.334 1.188 1.433 1.433 0 01-1.118.379h-1.318a1.434 1.434 0 01-.7-.161 1.093 1.093 0 01-.46-.484 1.285 1.285 0 01-1.292.645h-1.382a1.572 1.572 0 01-.757-.18.992.992 0 01-.473-.54 1.189 1.189 0 01-.592.558 2.425 2.425 0 01-.95.161H9.327a1.434 1.434 0 01-.7-.161 1.093 1.093 0 01-.46-.484 1.285 1.285 0 01-1.291.645H5.027a1.692 1.692 0 01-.947-.232zm20.613.105v-8.2a.11.11 0 01.125-.125h.794a.11.11 0 01.124.125v8.2a.11.11 0 01-.124.124h-.794a.11.11 0 01-.125-.125zm19.659 0v-.72a.11.11 0 01.124-.124h2.451v-5.6a.11.11 0 01.124-.125h.8a.11.11 0 01.124.125v5.6h1.454a.622.622 0 00.453-.143.723.723 0 00.144-.516v-6.7a.11.11 0 01.124-.125h.8a.11.11 0 01.124.125v6.759a1.759 1.759 0 01-.336 1.188 1.433 1.433 0 01-1.118.379h-5.133a.11.11 0 01-.135-.124zm8.449 0v-8.2a.11.11 0 01.125-.125h.794a.11.11 0 01.124.125v8.2a.11.11 0 01-.124.124h-.793a.11.11 0 01-.126-.125zm5.15-.013v-.573c0-.092.041-.137.124-.137h.745a1.969 1.969 0 01-.255-.541 2.323 2.323 0 01-.093-.676 2.324 2.324 0 01.1-.653 1.786 1.786 0 01.336-.633 1.832 1.832 0 01.621-.484 2.114 2.114 0 01.957-.193 2.2 2.2 0 01.894.18 1.481 1.481 0 01.646.528q.062.086.044.124a.288.288 0 01-.044.063l-.411.348c-.083.065-.153.069-.211.012a1.688 1.688 0 00-.411-.3 1.159 1.159 0 00-.547-.124.971.971 0 00-.8.329 1.2 1.2 0 00-.267.777 1.357 1.357 0 00.211.757 1.967 1.967 0 00.422.485h2.051c.083 0 .124.045.124.137v.572c0 .092-.041.137-.124.137h-3.989c-.082.001-.124-.044-.124-.136zm5.421.013v-8.2a.11.11 0 01.125-.125h.794a.11.11 0 01.124.125v8.2a.11.11 0 01-.124.124h-.794a.11.11 0 01-.126-.125zm2.623 0v-.72a.111.111 0 01.125-.124h2.372a2.249 2.249 0 00.56-.056.614.614 0 00.323-.187.7.7 0 00.151-.343 3.268 3.268 0 00.036-.534v-1q0-1.255-1.417-1.256h-1.441a.11.11 0 01-.124-.124v-.72a.11.11 0 01.124-.124h1.823a2.217 2.217 0 011.541.534 2.139 2.139 0 01.6 1.677v.97a4.206 4.206 0 01-.105 1.03 1.524 1.524 0 01-.324.653 1.168 1.168 0 01-.553.341 2.855 2.855 0 01-.808.1h-2.759a.111.111 0 01-.125-.118zm6.224 0v-8.2a.11.11 0 01.125-.125h.794a.11.11 0 01.124.125v8.2a.11.11 0 01-.124.124h-.794a.11.11 0 01-.126-.125zm26.984-1.166a2.144 2.144 0 00.317-1.306 2.232 2.232 0 00-.317-1.282 1.14 1.14 0 00-1.012-.46 1.144 1.144 0 00-1.013.46 2.243 2.243 0 00-.316 1.282 2.154 2.154 0 00.316 1.306 1.2 1.2 0 001.013.41 1.2 1.2 0 001.011-.411zm-17.87-.494a3.015 3.015 0 00.4-.423 2.248 2.248 0 00.3-.509 1.478 1.478 0 00.119-.578.986.986 0 00-.119-.509.882.882 0 00-.317-.317 1.416 1.416 0 00-.479-.168 3.348 3.348 0 00-.59-.049 3.666 3.666 0 00-.981.117 2.5 2.5 0 00-.56.205 3.587 3.587 0 011.112 1.006 4.162 4.162 0 01.69 1.542 3.75 3.75 0 00.419-.318zm-78.047-.147a2 2 0 00.292-1.164v-1.244H2.361a1.365 1.365 0 00-.95.329 1.557 1.557 0 00-.367 1.189 1.347 1.347 0 00.323.977 1.23 1.23 0 00.92.329 1.133 1.133 0 00.998-.417zm17.78-4.506v-.908a.109.109 0 01.124-.124h.844a.109.109 0 01.125.124v.908a.11.11 0 01-.125.124h-.844a.11.11 0 01-.125-.125zm1.517 0v-.908a.109.109 0 01.124-.124h.845a.109.109 0 01.124.124v.908a.11.11 0 01-.124.124h-.845a.11.11 0 01-.125-.125zm8.462 0v-.908a.109.109 0 01.124-.124h.844a.109.109 0 01.124.124v.908a.11.11 0 01-.124.124h-.844a.11.11 0 01-.125-.125zm1.517 0v-.908a.109.109 0 01.124-.124h.844a.11.11 0 01.125.124v.908a.11.11 0 01-.125.124h-.844a.11.11 0 01-.126-.125zm58.758 0v-.908a.109.109 0 01.124-.124h.844a.109.109 0 01.124.124v.908a.11.11 0 01-.124.124h-.844a.11.11 0 01-.125-.125zm1.517 0v-.908a.109.109 0 01.124-.124h.844a.11.11 0 01.125.124v.908a.11.11 0 01-.125.124h-.844a.11.11 0 01-.126-.125zm-91.756-.5v-.908a.11.11 0 01.125-.124h.844a.11.11 0 01.124.124v.908a.11.11 0 01-.124.124h-.844a.11.11 0 01-.126-.124zm1.518 0v-.908a.11.11 0 01.124-.124h.844a.11.11 0 01.124.124v.908a.11.11 0 01-.124.124h-.844a.11.11 0 01-.125-.124zm68.8-2.223v-.35c0-.057.025-.087.075-.087h.472a1.16 1.16 0 01-.161-.336 1.451 1.451 0 01-.061-.436 1.516 1.516 0 01.061-.416 1.079 1.079 0 01.212-.4 1.148 1.148 0 01.391-.3 1.371 1.371 0 01.6-.117 1.426 1.426 0 01.578.112.952.952 0 01.4.323q.036.088 0 .124l-.261.212c-.059.049-.1.057-.137.024a.967.967 0 00-.26-.2.688.688 0 00-.336-.081.618.618 0 00-.516.212.773.773 0 00-.168.5.818.818 0 00.143.478 1.273 1.273 0 00.28.305h1.28c.051 0 .075.029.075.087v.348c0 .059-.024.088-.075.088h-2.522c-.042-.002-.072-.031-.072-.09z" fill="#a3a2a2"/><path data-name="Path 1775" d="M16.983 43.362a1.159 1.159 0 01-.461-.319.055.055 0 01.007-.084l.359-.359a.058.058 0 01.089 0 .9.9 0 00.637.272.642.642 0 00.5-.173.756.756 0 00.156-.522v-.272h-.009a.7.7 0 01-.288.247 1.05 1.05 0 01-.469.093 1.043 1.043 0 01-.624-.183 1.022 1.022 0 01-.37-.526 1.992 1.992 0 01-.075-.337 3.194 3.194 0 01-.021-.408 3.143 3.143 0 01.021-.407 1.963 1.963 0 01.075-.335 1.029 1.029 0 01.37-.533 1.042 1.042 0 01.624-.181 1.014 1.014 0 01.469.095.716.716 0 01.288.251h.007v-.217a.056.056 0 01.061-.061h.557a.054.054 0 01.061.061v2.678a1.358 1.358 0 01-.343.985 1.357 1.357 0 01-1.021.355 1.557 1.557 0 01-.6-.12zm2.888-.009v-.486a.054.054 0 01.061-.06h.109a.4.4 0 00.272-.083.606.606 0 00.165-.263l.085-.248-1.066-2.75c-.012-.04 0-.061.048-.061h.6a.075.075 0 01.073.061l.658 1.909h.012l.632-1.909a.073.073 0 01.072-.061h.574c.044 0 .06.021.048.061l-1.113 3.041a3.086 3.086 0 01-.195.432 1.2 1.2 0 01-.211.28.706.706 0 01-.256.151 1.051 1.051 0 01-.32.047h-.189a.055.055 0 01-.059-.062zM1.228 42.347a2.838 2.838 0 01-.416-.113 2.212 2.212 0 01-.361-.173 1.634 1.634 0 01-.29-.217c-.032-.032-.036-.061-.012-.091l.376-.436a.051.051 0 01.085-.007 2.13 2.13 0 00.221.159 1.8 1.8 0 00.267.139 1.824 1.824 0 00.3.1 1.357 1.357 0 00.333.039.884.884 0 00.573-.165.531.531 0 00.2-.428.468.468 0 00-.163-.367 1.194 1.194 0 00-.588-.2l-.22-.031a1.706 1.706 0 01-.92-.372 1.026 1.026 0 01-.321-.8 1.318 1.318 0 01.1-.509 1.1 1.1 0 01.279-.393 1.251 1.251 0 01.44-.252 1.793 1.793 0 01.578-.088 2.428 2.428 0 01.736.112 2.007 2.007 0 01.6.3.059.059 0 01.012.087l-.291.445a.057.057 0 01-.084.02 2.265 2.265 0 00-.492-.243 1.535 1.535 0 00-.5-.077.686.686 0 00-.48.152.516.516 0 00-.167.4.44.44 0 00.169.355 1.2 1.2 0 00.586.2l.217.029a1.661 1.661 0 01.914.373 1.053 1.053 0 01.316.82 1.317 1.317 0 01-.1.509 1.042 1.042 0 01-.295.405 1.385 1.385 0 01-.486.265 2.1 2.1 0 01-.672.1 2.262 2.262 0 01-.444-.048zm7.558-.012a.885.885 0 01-.311-.163.8.8 0 01-.212-.277.9.9 0 01-.079-.4.8.8 0 01.312-.7 1.442 1.442 0 01.857-.225h.592a.032.032 0 00.036-.036v-.14a.445.445 0 00-.139-.368.819.819 0 00-.508-.115 1.215 1.215 0 00-.408.057.942.942 0 00-.26.141c-.035.029-.064.025-.084-.012l-.224-.4a.052.052 0 01.012-.079 1.41 1.41 0 01.424-.205 2.064 2.064 0 01.612-.08 1.434 1.434 0 01.942.243.984.984 0 01.275.776v1.907a.053.053 0 01-.061.06h-.501a.053.053 0 01-.061-.06v-.212h-.005a.757.757 0 01-.309.245 1.263 1.263 0 01-.515.093 1.271 1.271 0 01-.385-.051zm5.023-.16a1.1 1.1 0 01-.437-.6 1.753 1.753 0 01-.076-.312 2.757 2.757 0 01-.025-.4 3.322 3.322 0 01.023-.407 1.649 1.649 0 01.073-.313 1.075 1.075 0 01.438-.594 1.332 1.332 0 01.754-.212 1.3 1.3 0 01.766.216 1.118 1.118 0 01.434.589c.015.052.028.1.04.157a1.728 1.728 0 01.032.183 6.643 6.643 0 01.024.539q0 .06-.068.06h-1.8c-.025 0-.037.012-.037.035a.575.575 0 00.012.123.871.871 0 00.031.1.624.624 0 00.653.442.936.936 0 00.412-.081.8.8 0 00.272-.2c.033-.032.063-.036.092-.012l.357.316a.055.055 0 01.005.084 1.445 1.445 0 01-.489.359 1.7 1.7 0 01-.709.139 1.36 1.36 0 01-.776-.212zm14.33 0a1.094 1.094 0 01-.437-.6 1.753 1.753 0 01-.076-.312 2.538 2.538 0 01-.028-.4 3.016 3.016 0 01.025-.407 1.553 1.553 0 01.073-.313 1.069 1.069 0 01.438-.594 1.325 1.325 0 01.753-.212 1.3 1.3 0 01.766.216 1.1 1.1 0 01.433.589 1.6 1.6 0 01.043.157 1.948 1.948 0 01.049.415c.004.087.005.189.005.307 0 .04-.021.06-.067.06h-1.8a.03.03 0 00-.035.035.571.571 0 00.011.123.664.664 0 00.031.1.626.626 0 00.654.442.937.937 0 00.412-.081.831.831 0 00.272-.2c.032-.032.063-.036.089-.012l.36.316a.055.055 0 01.005.084 1.428 1.428 0 01-.492.359 1.689 1.689 0 01-.708.139 1.353 1.353 0 01-.775-.212zm7.7 0a1.076 1.076 0 01-.437-.593 2.25 2.25 0 01-.075-.319 2.81 2.81 0 01-.024-.4 2.8 2.8 0 01.024-.4 2.191 2.191 0 01.075-.317 1.079 1.079 0 01.437-.594 1.34 1.34 0 01.766-.212 1.338 1.338 0 01.761.212 1.079 1.079 0 01.437.594 2.024 2.024 0 01.073.317 2.623 2.623 0 01.024.4 2.627 2.627 0 01-.024.4 2.075 2.075 0 01-.073.319 1.076 1.076 0 01-.437.593 1.348 1.348 0 01-.761.212 1.35 1.35 0 01-.765-.21zm10.924.157a.882.882 0 01-.312-.163.8.8 0 01-.212-.277.915.915 0 01-.078-.4.8.8 0 01.313-.7 1.434 1.434 0 01.856-.225h.593a.031.031 0 00.035-.036v-.14a.444.444 0 00-.139-.368.821.821 0 00-.509-.115 1.2 1.2 0 00-.405.057.93.93 0 00-.261.141c-.035.029-.064.025-.084-.012l-.223-.4c-.021-.033-.017-.059.011-.079a1.418 1.418 0 01.425-.205 2.048 2.048 0 01.61-.08 1.434 1.434 0 01.942.243.98.98 0 01.275.776v1.907a.053.053 0 01-.061.06h-.508a.053.053 0 01-.06-.06v-.212h-.01a.735.735 0 01-.308.245 1.259 1.259 0 01-.515.093 1.256 1.256 0 01-.377-.048zm6.398-.149a1.086 1.086 0 01-.445-.6 2.325 2.325 0 01-.091-.721 2.313 2.313 0 01.091-.721 1.089 1.089 0 01.445-.6 1.365 1.365 0 01.758-.205 1.323 1.323 0 01.583.121 1.262 1.262 0 01.432.333.058.058 0 01-.007.085l-.383.333a.053.053 0 01-.084-.012.866.866 0 00-.235-.188.625.625 0 00-.307-.065.589.589 0 00-.334.092.54.54 0 00-.209.288 1.009 1.009 0 00-.048.239c-.008.088-.012.188-.012.3s0 .213.012.3a.99.99 0 00.048.243.537.537 0 00.209.283.6.6 0 00.334.095.639.639 0 00.307-.068.886.886 0 00.235-.187.053.053 0 01.084-.007l.383.333a.065.065 0 01.007.085 1.331 1.331 0 01-.432.327 1.342 1.342 0 01-.583.121 1.376 1.376 0 01-.758-.204zm2.882-.009a1.1 1.1 0 01-.437-.6 1.753 1.753 0 01-.076-.312 2.738 2.738 0 01-.025-.4 3.3 3.3 0 01.023-.407 1.545 1.545 0 01.073-.313 1.07 1.07 0 01.438-.594 1.329 1.329 0 01.754-.212 1.3 1.3 0 01.765.216 1.106 1.106 0 01.435.589c.016.052.029.1.041.157a1.668 1.668 0 01.032.183 6.643 6.643 0 01.024.539q0 .06-.068.06h-1.8c-.025 0-.037.012-.037.035a.567.567 0 00.012.123.664.664 0 00.031.1.623.623 0 00.653.442.936.936 0 00.412-.081.8.8 0 00.272-.2c.033-.032.063-.036.091-.012l.359.316a.055.055 0 01.005.084 1.435 1.435 0 01-.49.359 1.693 1.693 0 01-.708.139 1.357 1.357 0 01-.783-.211zm4.741-.037a1.338 1.338 0 01-.538-.74 2.088 2.088 0 01-.052-.195 1.819 1.819 0 01-.032-.225c-.008-.084-.016-.183-.02-.3s-.005-.253-.005-.416 0-.3.005-.413.012-.215.02-.3a1.759 1.759 0 01.032-.224c.013-.065.032-.129.052-.195a1.341 1.341 0 01.538-.741 1.624 1.624 0 01.914-.252 1.63 1.63 0 01.921.252 1.328 1.328 0 01.538.741c.021.065.039.129.053.195a2.01 2.01 0 01.032.224c.008.085.015.184.019.3s.005.253.005.413 0 .3-.005.416-.011.216-.019.3a2.085 2.085 0 01-.032.225 2.586 2.586 0 01-.053.195 1.325 1.325 0 01-.538.74 1.63 1.63 0 01-.921.252 1.624 1.624 0 01-.919-.252zm15.565.037a1.114 1.114 0 01-.437-.6 1.882 1.882 0 01-.075-.312 2.552 2.552 0 01-.027-.4 3.034 3.034 0 01.024-.407 1.752 1.752 0 01.072-.313 1.087 1.087 0 01.439-.594 1.332 1.332 0 01.754-.212 1.3 1.3 0 01.766.216 1.105 1.105 0 01.434.589c.016.052.029.1.041.157a1.7 1.7 0 01.032.183q.01.1.016.232c0 .088.007.189.007.307 0 .04-.023.06-.067.06h-1.8c-.025 0-.037.012-.037.035a.567.567 0 00.012.123.828.828 0 00.031.1.626.626 0 00.654.442.94.94 0 00.412-.081.831.831 0 00.272-.2c.033-.032.063-.036.091-.012l.359.316a.055.055 0 01.005.084 1.437 1.437 0 01-.49.359 1.7 1.7 0 01-.709.139 1.36 1.36 0 01-.784-.211zm10.391.16a.892.892 0 01-.312-.163.767.767 0 01-.211-.277.9.9 0 01-.081-.4.8.8 0 01.313-.7 1.443 1.443 0 01.856-.225h.593c.025 0 .037-.012.037-.036v-.14a.453.453 0 00-.139-.368.829.829 0 00-.51-.115 1.188 1.188 0 00-.405.057.9.9 0 00-.26.141c-.037.029-.065.025-.087-.012l-.223-.4a.052.052 0 01.012-.079 1.385 1.385 0 01.425-.205 2.043 2.043 0 01.61-.08 1.422 1.422 0 01.941.243.98.98 0 01.276.776v1.907a.053.053 0 01-.06.06h-.509a.053.053 0 01-.06-.06v-.212h-.005a.756.756 0 01-.309.245 1.265 1.265 0 01-.516.093 1.241 1.241 0 01-.382-.05zm3.075-.151a1.084 1.084 0 01-.444-.6 2.329 2.329 0 01-.091-.721 2.317 2.317 0 01.091-.721 1.087 1.087 0 01.444-.6 1.378 1.378 0 01.761-.205 1.339 1.339 0 01.582.121 1.245 1.245 0 01.431.333.056.056 0 01-.008.085l-.381.333a.054.054 0 01-.085-.012.856.856 0 00-.232-.188.632.632 0 00-.307-.065.59.59 0 00-.336.092.54.54 0 00-.209.288 1.081 1.081 0 00-.048.239c-.008.088-.012.188-.012.3s0 .213.012.3a1.057 1.057 0 00.048.243.537.537 0 00.209.283.6.6 0 00.336.095.647.647 0 00.307-.068.876.876 0 00.232-.187.055.055 0 01.085-.007l.381.333c.025.02.028.049.008.085a1.312 1.312 0 01-.431.327 1.358 1.358 0 01-.582.121 1.389 1.389 0 01-.767-.204zm6.043-.009a1.114 1.114 0 01-.437-.6 1.882 1.882 0 01-.075-.312 2.551 2.551 0 01-.027-.4 3.032 3.032 0 01.024-.407 1.741 1.741 0 01.072-.313 1.081 1.081 0 01.438-.594 1.333 1.333 0 01.755-.212 1.3 1.3 0 01.766.216 1.1 1.1 0 01.435.589c.016.052.029.1.041.157a1.7 1.7 0 01.032.183q.01.1.016.232c0 .088.007.189.007.307 0 .04-.023.06-.067.06h-1.8c-.025 0-.037.012-.037.035a.567.567 0 00.012.123.664.664 0 00.031.1.626.626 0 00.654.442.941.941 0 00.412-.081.831.831 0 00.272-.2c.033-.032.061-.036.089-.012l.36.316a.055.055 0 01.005.084 1.435 1.435 0 01-.49.359 1.7 1.7 0 01-.709.139 1.361 1.361 0 01-.785-.211zm-91.7-.028a.949.949 0 01-.183-.641v-1.539a.033.033 0 00-.037-.036h-.195c-.041 0-.06-.02-.06-.061v-.405a.053.053 0 01.06-.061h.195c.024 0 .037-.011.037-.035v-.8c0-.041.019-.061.059-.061h.557a.054.054 0 01.061.061v.8c0 .024.012.035.036.035h.387a.054.054 0 01.061.061v.405a.054.054 0 01-.061.061h-.387a.032.032 0 00-.036.036v1.514a.28.28 0 00.067.216.317.317 0 00.205.057h.151a.054.054 0 01.061.061v.484a.053.053 0 01-.061.06h-.289a.8.8 0 01-.636-.212zm7.564 0a.948.948 0 01-.184-.641v-1.539a.033.033 0 00-.037-.036h-.193c-.041 0-.06-.02-.06-.061v-.405a.053.053 0 01.06-.061h.193c.025 0 .037-.011.037-.035v-.8c0-.041.019-.061.06-.061h.556a.054.054 0 01.061.061v.8c0 .024.013.035.037.035h.386a.055.055 0 01.061.061v.405a.054.054 0 01-.061.061h-.386a.033.033 0 00-.037.036v1.514a.28.28 0 00.068.216.312.312 0 00.205.057h.151a.055.055 0 01.061.061v.484a.054.054 0 01-.061.06h-.291a.8.8 0 01-.635-.212zm55.87 0a.942.942 0 01-.185-.641v-1.539a.032.032 0 00-.036-.036h-.195a.053.053 0 01-.06-.061v-.405a.054.054 0 01.06-.061h.195c.024 0 .036-.011.036-.035v-.8a.054.054 0 01.06-.061h.558a.054.054 0 01.06.061v.8c0 .024.012.035.036.035h.386a.054.054 0 01.061.061v.405a.054.054 0 01-.061.061h-.386a.032.032 0 00-.036.036v1.514a.275.275 0 00.068.216.306.306 0 00.2.057h.151a.054.054 0 01.057.061v.484a.053.053 0 01-.061.06h-.289a.793.793 0 01-.628-.212zm-61.717.116v-2.8c0-.04.019-.061.059-.061h.558a.054.054 0 01.061.061v.248h.005a.766.766 0 01.291-.273.956.956 0 01.468-.1.95.95 0 01.335.063.839.839 0 01.276.18.061.061 0 01.012.084l-.321.407a.055.055 0 01-.085.013.892.892 0 00-.2-.1.684.684 0 00-.226-.035.468.468 0 00-.42.193.973.973 0 00-.129.544v1.582a.053.053 0 01-.061.06H5.94a.052.052 0 01-.074-.066zm18.342 0v-4c0-.041.019-.061.06-.061h1.545a1.591 1.591 0 01.548.093 1.275 1.275 0 01.429.261 1.149 1.149 0 01.279.4 1.352 1.352 0 01.1.522 1.365 1.365 0 01-.1.525 1.149 1.149 0 01-.279.4 1.275 1.275 0 01-.429.261 1.56 1.56 0 01-.548.093h-.861c-.023 0-.035.012-.035.037v1.459a.054.054 0 01-.061.06h-.593a.052.052 0 01-.064-.05zm6.7 0v-2.8a.054.054 0 01.061-.061h.557a.054.054 0 01.061.061v.248h.007a.757.757 0 01.291-.273.951.951 0 01.466-.1.938.938 0 01.335.063.826.826 0 01.276.18.06.06 0 01.013.084l-.323.407a.055.055 0 01-.085.013.873.873 0 00-.205-.1.674.674 0 00-.224-.035.472.472 0 00-.421.193.973.973 0 00-.129.544v1.582a.053.053 0 01-.061.06h-.557a.053.053 0 01-.067-.066zm2.652 0v-2.3a.033.033 0 00-.036-.036h-.195a.054.054 0 01-.061-.061v-.405a.054.054 0 01.061-.061h.195a.031.031 0 00.036-.035v-.188a.981.981 0 01.245-.744 1.013 1.013 0 01.724-.232h.266a.053.053 0 01.06.061v.485a.053.053 0 01-.06.06h-.187a.826.826 0 00-.189.016.213.213 0 00-.112.056.237.237 0 00-.055.109.9.9 0 00-.015.176v.2a.03.03 0 00.035.035h.522a.054.054 0 01.06.061v.405a.053.053 0 01-.06.061h-.522a.032.032 0 00-.035.036v2.3c0 .04-.019.06-.061.06h-.557a.053.053 0 01-.067-.059zm5.063 0v-2.8a.054.054 0 01.061-.061h.557a.054.054 0 01.061.061v.248h.005a.76.76 0 01.292-.273.951.951 0 01.466-.1.944.944 0 01.335.063.826.826 0 01.276.18.058.058 0 01.012.084l-.321.407a.055.055 0 01-.085.013.877.877 0 00-.205-.1.674.674 0 00-.224-.035.472.472 0 00-.421.193.974.974 0 00-.129.544v1.582a.053.053 0 01-.061.06h-.557a.053.053 0 01-.066-.066zm2.562 0v-2.8a.054.054 0 01.06-.061h.558a.054.054 0 01.06.061v.211h.005a.817.817 0 01.288-.239 1.034 1.034 0 01.481-.1 1.033 1.033 0 01.464.1.884.884 0 01.334.288h.007a1.277 1.277 0 01.395-.285 1.278 1.278 0 01.54-.1 1.161 1.161 0 01.451.083.947.947 0 01.334.227.977.977 0 01.2.341 1.26 1.26 0 01.071.434v1.842a.053.053 0 01-.061.06h-.558a.053.053 0 01-.06-.06v-1.685a.712.712 0 00-.14-.461.487.487 0 00-.41-.173.5.5 0 00-.412.173.707.707 0 00-.144.461v1.685a.054.054 0 01-.061.06h-.558a.053.053 0 01-.06-.06v-1.685a.72.72 0 00-.139-.461.493.493 0 00-.412-.173.5.5 0 00-.412.173.7.7 0 00-.145.461v1.685a.053.053 0 01-.06.06h-.558a.053.053 0 01-.062-.062zm8.271 0v-2.8a.055.055 0 01.061-.061h.558a.054.054 0 01.06.061v.211h.005a.811.811 0 01.286-.239 1.044 1.044 0 01.483-.1 1.032 1.032 0 01.421.083.934.934 0 01.319.227 1.018 1.018 0 01.2.341 1.292 1.292 0 01.069.434v1.842a.053.053 0 01-.06.06h-.558a.053.053 0 01-.06-.06v-1.685a.72.72 0 00-.14-.461.492.492 0 00-.41-.173.5.5 0 00-.413.173.7.7 0 00-.144.461v1.685a.053.053 0 01-.06.06h-.558a.054.054 0 01-.063-.059zm14.577 0v-2.8a.054.054 0 01.061-.061h.557a.054.054 0 01.06.061v.211h.005a.817.817 0 01.288-.239 1.034 1.034 0 01.481-.1 1.035 1.035 0 01.423.083.943.943 0 01.317.227.955.955 0 01.2.341 1.259 1.259 0 01.072.434v1.842a.054.054 0 01-.061.06h-.558a.053.053 0 01-.06-.06v-1.685a.728.728 0 00-.139-.461.493.493 0 00-.412-.173.508.508 0 00-.413.173.707.707 0 00-.144.461v1.685a.053.053 0 01-.06.06h-.557a.053.053 0 01-.064-.059zm5.259 0v-2.8a.055.055 0 01.06-.061h.56a.054.054 0 01.06.061v2.8a.054.054 0 01-.06.06h-.56a.054.054 0 01-.064-.06zm1.561 0v-2.8a.054.054 0 01.061-.061h.558c.04 0 .059.021.059.061v.211h.007a.81.81 0 01.286-.239 1.038 1.038 0 01.481-.1 1.032 1.032 0 01.464.1.9.9 0 01.336.288h.008a1.226 1.226 0 01.393-.285 1.273 1.273 0 01.538-.1 1.161 1.161 0 01.451.083.949.949 0 01.334.227.959.959 0 01.2.341 1.257 1.257 0 01.071.434v1.842a.053.053 0 01-.061.06h-.557a.052.052 0 01-.06-.06v-1.685a.721.721 0 00-.14-.461.491.491 0 00-.412-.173.505.505 0 00-.412.173.706.706 0 00-.144.461v1.685a.054.054 0 01-.06.06h-.56a.054.054 0 01-.06-.06v-1.685a.72.72 0 00-.139-.461.492.492 0 00-.411-.173.5.5 0 00-.413.173.7.7 0 00-.145.461v1.685c0 .04-.019.06-.059.06h-.558a.053.053 0 01-.057-.062zm10.491 0v-3.38a.032.032 0 00-.036-.036h-1.078a.054.054 0 01-.061-.061v-.52a.054.054 0 01.061-.061h2.943a.053.053 0 01.06.061v.52a.053.053 0 01-.06.061h-1.077c-.025 0-.037.012-.037.036v3.38a.053.053 0 01-.06.06h-.593a.054.054 0 01-.066-.06zm2.463 0v-2.8a.054.054 0 01.061-.061h.557a.054.054 0 01.06.061v.248h.005a.771.771 0 01.292-.273.955.955 0 01.467-.1.95.95 0 01.336.063.839.839 0 01.276.18.058.058 0 01.012.084l-.321.407a.055.055 0 01-.085.013.9.9 0 00-.205-.1.674.674 0 00-.224-.035.472.472 0 00-.421.193.961.961 0 00-.13.544v1.582a.053.053 0 01-.06.06h-.557a.053.053 0 01-.067-.066zm8.5 0v-4a.053.053 0 01.06-.061h.557a.054.054 0 01.061.061v2.374l1-1.176a.16.16 0 01.115-.061h.618c.021 0 .033.008.037.023a.037.037 0 01-.012.039l-.928 1.068 1.066 1.731a.044.044 0 01.005.039c0 .015-.016.021-.036.021h-.635a.112.112 0 01-.1-.06l-.738-1.224-.393.453v.77a.053.053 0 01-.061.06h-.557a.053.053 0 01-.064-.057zm6.315 0v-2.8a.054.054 0 01.061-.061h.558a.055.055 0 01.061.061v.248h.005a.757.757 0 01.291-.273.949.949 0 01.465-.1.94.94 0 01.336.063.86.86 0 01.277.18.061.061 0 01.012.084l-.323.407a.055.055 0 01-.085.013.9.9 0 00-.205-.1.674.674 0 00-.224-.035.472.472 0 00-.421.193.963.963 0 00-.128.544v1.582a.054.054 0 01-.061.06h-.558a.053.053 0 01-.066-.066zm-88.814-.548a.428.428 0 00.165-.375v-.225a.031.031 0 00-.036-.035h-.485a.952.952 0 00-.479.093.332.332 0 00-.151.3c0 .241.167.364.5.364a.807.807 0 00.486-.122zm37.977 0a.43.43 0 00.164-.375v-.225a.031.031 0 00-.035-.035h-.485a.954.954 0 00-.478.093.332.332 0 00-.151.3c0 .241.167.364.5.364a.816.816 0 00.485-.122zm39.97 0a.432.432 0 00.167-.375v-.225c0-.023-.012-.035-.037-.035h-.484a.942.942 0 00-.477.093.327.327 0 00-.152.3c0 .241.168.364.5.364a.806.806 0 00.48-.122zm-50.815-.033a.588.588 0 00.2-.28 1.193 1.193 0 00.048-.235c.008-.079.012-.18.012-.305s0-.227-.012-.3a1.313 1.313 0 00-.048-.236.585.585 0 00-.2-.281.557.557 0 00-.342-.1.561.561 0 00-.344.1.568.568 0 00-.207.281 1.231 1.231 0 00-.049.236c-.007.077-.011.179-.011.3s0 .227.011.305a1.122 1.122 0 00.049.235.57.57 0 00.207.28.571.571 0 00.344.1.567.567 0 00.342-.099zm25.243-.077a.812.812 0 00.272-.4.905.905 0 00.029-.127c.007-.049.015-.111.021-.183s.011-.16.015-.263.007-.228.007-.375 0-.269-.007-.371-.009-.191-.015-.263-.015-.133-.021-.183a.884.884 0 00-.029-.128.808.808 0 00-.272-.4.81.81 0 00-.5-.141.791.791 0 00-.493.141.814.814 0 00-.271.4.843.843 0 00-.031.128 1.327 1.327 0 00-.024.183c-.008.072-.012.16-.013.263v.746c0 .104.005.189.013.263a1.356 1.356 0 00.024.183.863.863 0 00.031.127.818.818 0 00.271.4.8.8 0 00.493.141.819.819 0 00.5-.14zm-44.176-.057a.59.59 0 00.185-.28.951.951 0 00.051-.215 1.731 1.731 0 00.015-.263 1.47 1.47 0 00-.065-.48.584.584 0 00-.185-.272.532.532 0 00-.337-.1.493.493 0 00-.519.377 1.468 1.468 0 00-.067.48 2.169 2.169 0 00.015.263 1.039 1.039 0 00.052.215.494.494 0 00.515.376.54.54 0 00.34-.1zm-2.843-1.013a.79.79 0 00-.037-.248.533.533 0 00-.212-.275.649.649 0 00-.359-.1.656.656 0 00-.363.1.5.5 0 00-.211.275.75.75 0 00-.037.248c0 .024.012.036.037.036h1.144a.033.033 0 00.038-.035zm14.328 0a.791.791 0 00-.036-.248.53.53 0 00-.211-.275.654.654 0 00-.36-.1.649.649 0 00-.361.1.522.522 0 00-.213.275.792.792 0 00-.035.248c0 .024.011.036.035.036h1.141a.032.032 0 00.04-.035zm27.9 0a.786.786 0 00-.037-.248.532.532 0 00-.212-.275.649.649 0 00-.359-.1.654.654 0 00-.363.1.505.505 0 00-.211.275.753.753 0 00-.037.248c0 .024.012.036.037.036h1.142a.033.033 0 00.041-.035zm20.305 0a.786.786 0 00-.037-.248.531.531 0 00-.211-.275.657.657 0 00-.36-.1.649.649 0 00-.361.1.507.507 0 00-.212.275.753.753 0 00-.037.248c0 .024.012.036.037.036h1.144a.033.033 0 00.038-.035zm19.508 0a.79.79 0 00-.037-.248.53.53 0 00-.211-.275.657.657 0 00-.36-.1.649.649 0 00-.361.1.507.507 0 00-.212.275.753.753 0 00-.037.248c0 .024.012.036.037.036h1.144a.033.033 0 00.039-.035zm-70.944-.589a.609.609 0 00.183-.462.606.606 0 00-.183-.461.689.689 0 00-.5-.176h-.809a.031.031 0 00-.035.036v1.2a.031.031 0 00.035.035h.812a.7.7 0 00.499-.171zm43.026-1.156v-.525a.054.054 0 01.06-.061h.56a.054.054 0 01.06.061v.525a.054.054 0 01-.06.061h-.56a.054.054 0 01-.059-.06z" fill="#a3a2a2"/><g transform="translate(-1071.408 57.562)"><path data-name="Path 1764" d="M1205.142-33.216l-.18-.055-.116-.036-.072-.1a.787.787 0 01-.173-.348 13.3 13.3 0 01-.54-2.63c-.019-.213-.044-.42-.048-.634 0-.2-.021-.395-.019-.592a12.408 12.408 0 01.249-2.542c.043-.187.071-.38.119-.564a16.991 16.991 0 01.969-2.794c1.813-3.974 4.965-7.205 8.315-9.98l1.354-1.09.324-2.059c.031-.2.065-.408.087-.608a2.881 2.881 0 00.043-.319l.49.08-.028.239c-.031.264-.056.529-.087.794-.077.678-.188 1.365-.256 2.041-.02.2-.177.264-.313.389-.316.292-.68.562-1.006.849a43.809 43.809 0 00-3.547 3.4 36.103 36.103 0 00-1.819 2.127 25.317 25.317 0 00-2.018 3.037 19.891 19.891 0 00-.893 1.865 11.345 11.345 0 00-.568 1.643c-.1.377-.172.738-.253 1.118a12.824 12.824 0 00-.184 1.423 7.92 7.92 0 00-.029 1.125c.024.445.047.877.105 1.319l.109.566.26-.8a24.321 24.321 0 013.259-6.142 24.813 24.813 0 011.665-2.033c.392-.426.8-.822 1.2-1.236l.693.7a23.472 23.472 0 00-3.791 4.667 30.71 30.71 0 00-.744 1.294c-.244.454-.455.917-.677 1.381-.1.2-.175.408-.264.61a18.367 18.367 0 00-.726 1.966c-.075.241-.153.484-.223.726-.055.192-.108.388-.157.581l-.083.276-.151.228z" fill="#1bbcad" fill-rule="evenodd"/><path data-name="Path 1765" d="M1236.983-31.891a28.851 28.851 0 00-6.577-4.024 17.639 17.639 0 00-2.964-.946 10.66 10.66 0 00-1.1-.2c-.177-.021-.359-.056-.535-.075a14.22 14.22 0 00-3.113.023 10.011 10.011 0 00-1.289.22c-.14.035-.283.061-.421.1-.471.12-.958.276-1.414.442a2.673 2.673 0 01-1.025.309l-.1-.064c-.156-.089-.16-.1-.22-.265l-.044-.112.029-.116a1.072 1.072 0 01.211-.434 11.563 11.563 0 011.666-2.051 19.173 19.173 0 014.843-3.081l.443.88a19.59 19.59 0 00-4.26 2.59 9.132 9.132 0 00-1.109 1.146l-.047.067.812-.244a12.043 12.043 0 012.374-.381c.433-.023.853-.043 1.288-.039a14.258 14.258 0 012.194.205 21.909 21.909 0 019.687 4.7c.756.59 1.506 1.25 2.207 1.9.349.324.688.665 1.037.992l-.336.365a53.084 53.084 0 00-2.237-1.907z" fill="#1bbcad" fill-rule="evenodd"/><path data-name="Path 1766" d="M1202.567-29.366c-.159-.084-.323-.192-.476-.287-.327-.2-.651-.408-.968-.622a10.813 10.813 0 01-3.663-3.765 8.982 8.982 0 01-.693-1.73c-.059-.208-.1-.425-.155-.634l.957-.229a7.759 7.759 0 001.048 2.626 9.5 9.5 0 002.026 2.172l1.115.813-.1-.255a13.46 13.46 0 01-.542-1.835c-1.132-5.13.813-10.437 3.616-14.69a29.722 29.722 0 011.778-2.415c.269-.331.558-.646.825-.977l.381.317a26.667 26.667 0 00-2.107 2.922c-.219.353-.442.7-.653 1.06a26.46 26.46 0 00-1.657 3.304 19.377 19.377 0 00-1.558 6.4 13.744 13.744 0 00.889 5.775c.1.264.224.552.347.806.1.2.227.408.31.608l.063.337-.148.271-.281.128a1.217 1.217 0 01-.354-.1z" fill="#1bbcad" fill-rule="evenodd"/><path data-name="Path 1767" d="M1199.408-26.132a14.769 14.769 0 01-1.458-1.149 8.5 8.5 0 01-1.153-1.281 15.979 15.979 0 01-1.469-2.284 18.749 18.749 0 01-1.681-12.4l.425-1.766.155-1.777a5.025 5.025 0 00-.053-.677l-.043-.332c.1.052.167.273.2.371a4.014 4.014 0 01.181 1.117 7.643 7.643 0 01-.044 1.354c-.068.433-.181.865-.245 1.3-.117.809-.219 1.59-.264 2.407a17.994 17.994 0 003.086 11.517l1.083 1.353 1.573 1.31a14.363 14.363 0 001.77 1.061 12.017 12.017 0 002.991 1.086 7.568 7.568 0 001.365.159 4.169 4.169 0 00.918-.081 2.277 2.277 0 001.594-1.046 4.213 4.213 0 00.279-.658c.088-.211.176-.4.245-.617a7.822 7.822 0 00.195-2.732c-.032-.509-.081-1.014-.129-1.522-.051-.538-.1-1.076-.143-1.615a17.187 17.187 0 01-.025-2.527 9.019 9.019 0 01.825-3.224 7.436 7.436 0 01.849-1.377c.244-.3.545-.6.812-.881.453-.476.929-.93 1.421-1.363a21.07 21.07 0 018.246-4.564 15.464 15.464 0 011.591-.368c.2-.032.413-.087.608-.108s.429-.028.625-.036c.067 0 .352-.021.418-.025-.657.2-1.314.384-1.974.577a23.512 23.512 0 00-2.787 1.014 22.349 22.349 0 00-6.507 4.38l-1.79 1.906-.577.926c-1.165 2.236-.908 4.645-.64 7.194a14.183 14.183 0 01.052 4.06l-.4 1.262-.392.869a3.767 3.767 0 01-3.573 1.53 12.774 12.774 0 01-6.16-2.343z" fill="#a3a2a2" fill-rule="evenodd"/><path data-name="Path 1768" d="M1243.448-22.78c-.249-.011-.5-.015-.753-.035a1.122 1.122 0 01-.34-.043 1.682 1.682 0 01-.292-.269c-.171-.169-.336-.347-.505-.518q-.646-.66-1.3-1.318a66.308 66.308 0 00-3.92-3.688c-2.979-2.563-6.519-4.875-10.512-5.317a11.523 11.523 0 00-1.51-.063l-.394.033.185.076a28.969 28.969 0 014.909 2.9 31.494 31.494 0 013.1 2.63c.705.677 1.338 1.4 1.993 2.124l-.738.65a34.493 34.493 0 00-1.874-2.01 26.576 26.576 0 00-2-1.791c-.139-.111-.284-.216-.421-.328-.4-.327-.85-.66-1.282-.946-.65-.432-1.29-.869-1.974-1.25-.769-.429-1.546-.848-2.351-1.206a28.966 28.966 0 00-1.392-.58l-.208-.084-.095-.079-.14-.119-.068-.3.076-.167.051-.112.107-.059a1.657 1.657 0 01.665-.175 11.013 11.013 0 011.35-.14c.2 0 .4-.021.6-.02a14.17 14.17 0 011.523.08 14.836 14.836 0 014.524 1.291 24.124 24.124 0 013.231 1.845 32.469 32.469 0 013.648 2.942c.232.212.456.434.686.648.385.355.749.722 1.118 1.093.273.275.549.544.813.826s.532.549.794.825l1.875 2.019 1.214.093c.632.019 1.255.085 1.89.085v.5a45.593 45.593 0 01-2.283-.043z" fill="#1bbcad" fill-rule="evenodd"/><path data-name="Path 1769" d="M1201.202-15.902c-.24-.02-.48-.032-.718-.068-.4-.059-.776-.115-1.17-.189a14.965 14.965 0 01-2.036-.565 18.683 18.683 0 01-3.456-1.639 18.048 18.048 0 01-1.265-.806 41.129 41.129 0 01-2.226-1.678 37.013 37.013 0 01-2.267-2.031q-1.039-1-2.038-2.035l-1.9-2.017-2.05-.209c-.24-.025-.488-.049-.725-.085l-.235-.028.1-.488.2.021c.235 0 .495.048.733.061.214.012.432.036.646.052.308.024.621.036.929.063a3.219 3.219 0 01.677.068 2.336 2.336 0 01.349.332c.257.24.51.52.758.773.329.335.665.664 1 .994.447.442.9.884 1.361 1.315.249.235.509.46.758.694.458.432.948.838 1.423 1.252.344.3.705.582 1.064.862a23.839 23.839 0 005.458 3.293 20.092 20.092 0 001.918.657c.213.065.429.1.645.155a13.372 13.372 0 003.08.333c.239 0 .468-.007.7-.024l.135-.011-1.477-.561c-3.144-1.414-5.644-3.798-8.192-6.05l.653-.736c.654.586 1.31 1.173 1.975 1.749a24.921 24.921 0 005.744 4.049 14.014 14.014 0 002.634.909c.286.068.586.12.877.165a3.51 3.51 0 01.544.092l.234.12.129.3-.059.189-.037.125-.111.073a.7.7 0 01-.339.148c-.36.069-.71.156-1.074.217a13.967 13.967 0 01-3.349.159z" fill="#1bbcad" fill-rule="evenodd"/><path data-name="Path 1770" d="M1234.548-15.726a46.3 46.3 0 00-.724-2.644 22.247 22.247 0 00-2.842-5.971l-1.358-1.761-1.081-1c-2.668-2.1-6.118-2.366-9.514-2.475-.84-.027-1.681-.048-2.52-.081-.4-.016-.828-.023-1.226-.063-.26-.027-.528-.041-.789-.065a1.816 1.816 0 01-1.519-.6 4.641 4.641 0 01-.7-3 11.954 11.954 0 011.27-4.865 6.981 6.981 0 011.622-2.163 19.725 19.725 0 015.01-3.137 21.609 21.609 0 0113.172-.909 8.742 8.742 0 001.677.156 5.014 5.014 0 00.648-.053l.327-.048c-.048.123-.471.243-.584.271a6.334 6.334 0 01-2.127.065 26.981 26.981 0 00-7.506-.168 18.616 18.616 0 00-9.091 3.768l-1.08.9-.886 1.153a9.711 9.711 0 00-.654 1.313 11.325 11.325 0 00-.7 2.512 7.417 7.417 0 00.016 2.843c.06.232.253.781.505.878a3.369 3.369 0 00.874.123c.324.037.653.052.978.071.822.048 1.645.072 2.468.1 3.24.111 6.753.269 9.627 1.949a11.16 11.16 0 013.78 3.864 21.762 21.762 0 013 7.436 19.169 19.169 0 01.532 3.932c-.263-.758-.41-1.558-.605-2.331z" fill="#a3a2a2" fill-rule="evenodd"/><path data-name="Path 1771" d="M1202.108-8.732l-.448-.877a30.987 30.987 0 004.8-2.742c.259-.2.492-.412.734-.625l.535-.549-.753.231c-.454.119-.91.2-1.37.287a9.827 9.827 0 01-1.135.144 17.061 17.061 0 01-2.917-.005 18.26 18.26 0 01-3.448-.664 24.788 24.788 0 01-6.987-3.429 33.38 33.38 0 01-2.168-1.627 57.018 57.018 0 01-1.6-1.389l.32-.379c.485.4.97.794 1.466 1.181.57.445 1.177.865 1.776 1.27a26.059 26.059 0 007.228 3.479 18.309 18.309 0 002.271.5c.408.065.812.095 1.221.143s.852.041 1.266.048a14.682 14.682 0 004.586-.712c.284-.091.589-.193.864-.309.163-.068.384-.172.548-.22l.3-.02.255.163.111.281-.112.344a8.886 8.886 0 01-.7.994c-.089.111-.189.215-.28.325a8.727 8.727 0 01-.846.844 14.136 14.136 0 01-2.844 1.925c-.887.475-1.782.928-2.673 1.388z" fill="#1bbcad" fill-rule="evenodd"/><path data-name="Path 1772" d="M1196.038-5.837l-2.913-.473-.78.016a5.013 5.013 0 00-.79.128 3.309 3.309 0 00-.369.12l-.3.117c.024-.152.48-.38.6-.429a4.359 4.359 0 011.17-.279 3.631 3.631 0 01.508-.036c.313.013.67.1.989.133.392.04.789.093 1.182.117.2.012.395.029.592.04a25.166 25.166 0 0010.942-1.672l1.421-.649 1.285-.945c2.947-2.458 5.127-6.409 4.416-10.235a7.334 7.334 0 00-.331-1.189l-.305-.672-1.249.657a13.076 13.076 0 01-1.838.668 13.145 13.145 0 01-2.982.489c-6.184.249-11.631-3.848-14.31-9.238a16.612 16.612 0 01-1.547-4.765 7.4 7.4 0 01-.112-2.021c.132.453.207.914.307 1.374.071.321.148.645.232.964a18.963 18.963 0 001.217 3.307c2.436 5.119 7.5 9.344 13.349 9.446a12.4 12.4 0 004.6-.829c.309-.12.628-.255.926-.4.182-.088.373-.2.556-.279a6.679 6.679 0 00.65-.365 1.072 1.072 0 01.188-.111l.227-.027.155-.02.3.249.1.2c.088.168.161.331.241.5a8.208 8.208 0 01.589 1.879 11.154 11.154 0 01-2.454 8.7 14.421 14.421 0 01-2.727 2.71 9.648 9.648 0 01-1.033.709c-.125.069-.263.121-.392.184-.349.169-.706.317-1.068.458a20.726 20.726 0 01-2.424.8 25.388 25.388 0 01-8.818.669z" fill="#a3a2a2" fill-rule="evenodd"/><path data-name="Path 1773" d="M1232.18-3.347a4.553 4.553 0 01-.311-1.606c.007-.454.067-.924.084-1.379.021-.546.067-1.094.091-1.642s.045-1.082.059-1.626.015-1.068.011-1.606c-.031-3.691-.685-7.353-3.007-10.333a13.963 13.963 0 00-1.333-1.475l-1.485-1.262-1.061-.53a12.438 12.438 0 00-5.8-.8l-1.685.2.2.369a12.52 12.52 0 011.081 3.277 14.015 14.015 0 01.128 4.02 14.837 14.837 0 01-5.679 10.1 19.409 19.409 0 01-6.829 3.209c-.78.2-1.57.376-2.364.508a13.923 13.923 0 01-2.543.248c.876-.263 1.774-.434 2.659-.661.9-.231 1.79-.48 2.671-.781a17.535 17.535 0 007.6-4.7l.83-1.012.792-1.2a13.885 13.885 0 001.747-9.739 11.98 11.98 0 00-.592-2c-.093-.235-.213-.462-.305-.693a6.529 6.529 0 00-.4-.758 3.557 3.557 0 01-.2-.337 4.136 4.136 0 01-.021-.458 4.281 4.281 0 01.369-.276l.255-.04c.337-.055.7-.081 1.029-.145l.257-.027c.257-.027.513-.052.772-.072a16.6 16.6 0 013.183.045 11.452 11.452 0 013.272.858 7.591 7.591 0 01.793.4c.1.061.232.119.329.184.152.1.289.227.433.339a14.177 14.177 0 011.581 1.451 14.023 14.023 0 011.59 2.011c2.347 3.623 2.607 7.966 2.294 12.2l-.448 4.161.015.757a4.169 4.169 0 00.131.76 7.4 7.4 0 00.12.392 1.777 1.777 0 01.117.333c-.146-.032-.379-.539-.43-.664z" fill="#a3a2a2" fill-rule="evenodd"/><path data-name="Path 1776" d="M1219.527 9.121c-.061-.127-.109-.28-.161-.412a17.6 17.6 0 01-.221-.578c-.156-.437-.313-.882-.473-1.318a2.708 2.708 0 01-.188-.638 2.456 2.456 0 01.2-.5c.146-.339.3-.674.444-1.013.437-1 .886-2.01 1.294-3.027a45.808 45.808 0 001.994-5.778c.113-.448.232-.906.324-1.358.1-.486.18-.976.26-1.465a19.976 19.976 0 00.2-2.127 13.745 13.745 0 00-.391-4.068 12.225 12.225 0 00-.38-1.265c-.071-.181-.135-.375-.211-.553l-.2-.433v.085a29.049 29.049 0 01-.38 3.545 28.667 28.667 0 01-1.491 5.437 36.7 36.7 0 01-1.565 3.471l-.893-.45a30.477 30.477 0 002.792-7.7c.181-.845.3-1.7.411-2.56a28.918 28.918 0 00.17-3.134c.005-.331-.083-.829.3-.984l.052-.036.311.013.252.217a10.681 10.681 0 01.592 1.022 13.153 13.153 0 011.433 4.522 22.809 22.809 0 01-1.555 10.524c-.217.616-.466 1.218-.7 1.826-.281.724-.6 1.473-.93 2.178-.175.376-.336.757-.512 1.132l-1.193 2.528.455 1.442q.26.774.538 1.533l-.451.224c-.023-.016-.108-.262-.127-.302z" fill="#1bbcad" fill-rule="evenodd"/><path data-name="Path 1777" d="M1224.489.706l-.472-.179c1.789-4.907 3.124-10.484 1.57-15.632a13.639 13.639 0 00-2.729-4.97 9.374 9.374 0 00-.712-.777 1.033 1.033 0 01-.24-.395l.033-.18.023-.12.089-.084.135-.127.3-.039a1.039 1.039 0 01.121.025c.361.083.728.135 1.089.235a10.959 10.959 0 012.158.836 13.441 13.441 0 011.835 1.154c.84.637 1.6 1.318 2.4 2l-.661.752a19.559 19.559 0 00-4.053-3.032 10.15 10.15 0 00-.916-.4l-.618-.207a16.564 16.564 0 011.246 1.807 14.356 14.356 0 011.247 2.763 15.392 15.392 0 01.406 1.486c.041.177.067.36.107.537a11.5 11.5 0 01.181 1.262 17.45 17.45 0 01.1 2.223 26.743 26.743 0 01-1.422 7.8c-.22.665-.448 1.331-.706 1.982-.167.427-.343.851-.511 1.28z" fill="#1bbcad" fill-rule="evenodd"/><circle data-name="Ellipse 261" cx=".78" cy=".78" r=".78" transform="translate(1212.453 -27.279)" fill="#1bbcad"/></g></svg>