<svg xmlns="http://www.w3.org/2000/svg" width="181.535" height="55.458"><g fill-rule="evenodd"><path data-name="Path 1704" d="M160.723 13.333V0h1.016v12.118l3.28-3.249.718.722-4.149 4.106a.508.508 0 01-.865-.364z" fill="#1abbad"/><path data-name="Path 1705" d="M158.021 13.696l-4.148-4.109.714-.722 3.283 3.248V3.879h1.017v9.452a.509.509 0 01-.866.365z" fill="#1abbad"/><path data-name="Path 1706" d="M159.443 19.205l-12.515-12.5.717-.721 12.157 12.146 9.815-9.785.717.72-10.174 10.14a.508.508 0 01-.717 0z" fill="#1abbad"/><path data-name="Path 1707" d="M171.157 26.972l-4.1-4.145a.508.508 0 01.36-.865h13.335v1.017H168.63l3.251 3.28z" fill="#1abbad"/><path data-name="Path 1708" d="M167.052 19.258l4.105-4.145.722.713-3.251 3.28h8.235v1.017h-9.454a.508.508 0 01-.357-.865z" fill="#1abbad"/><path data-name="Path 1709" d="M171.687 31.57l-10.144-10.173a.506.506 0 010-.717l12.5-12.515.72.72-12.142 12.154 9.785 9.816z" fill="#1abbad"/><path data-name="Path 1710" d="M138.788 20.001v-1.014h12.121l-3.252-3.281.724-.714 4.106 4.145a.508.508 0 01-.361.865z" fill="#1abbad"/><path data-name="Path 1711" d="M148.381 26.854l-.724-.713 3.251-3.283h-8.237v-1.017h9.455a.51.51 0 01.361.866z" fill="#1abbad"/><path data-name="Path 1712" d="M145.494 33.801l-.72-.72 12.143-12.157-9.786-9.81.72-.717 10.144 10.172a.508.508 0 010 .717z" fill="#1abbad"/><path data-name="Path 1713" d="M171.85 35.919l-12.155-12.145-9.813 9.785-.717-.72 10.172-10.143a.506.506 0 01.717 0l12.515 12.5z" fill="#1abbad"/><path data-name="Path 1714" d="M160.886 47.529v-19.11h1.017v18.053l19-15.2.637.793-19.828 15.861a.509.509 0 01-.826-.397z" fill="#a3a2a2"/><path data-name="Path 1715" d="M158.061 47.927l-19.822-15.86.634-.792 19 15.2V28.419h1.017v19.11a.51.51 0 01-.829.398z" fill="#a3a2a2"/><path data-name="Path 1716" d="M155.404 55.458l-.728-.708 3.015-3.107-11.149-8.9.633-.793 11.587 9.25a.508.508 0 01.048.752z" fill="#a3a2a2"/><path data-name="Path 1717" d="M164.283 55.458l-3.407-3.508a.508.508 0 01.048-.75l11.592-9.251.633.793-11.149 8.9 3.016 3.107z" fill="#a3a2a2"/></g><g fill="#a3a2a2"><path data-name="Path 1718" d="M.737 40.651a.743.743 0 00.54-.171.867.867 0 00.169-.612v-7.952c0-.1.048-.149.147-.149h.945a.13.13 0 01.147.149v4.5a8.73 8.73 0 011.609-.648 6.278 6.278 0 011.814-.267 4.483 4.483 0 011.713.281 2.8 2.8 0 011.086.76 2.769 2.769 0 01.573 1.109 5.489 5.489 0 01.16 1.343c0 .128 0 .249-.007.363s-.007.208-.008.287a.862.862 0 00.363.754 1.67 1.67 0 00.966.251h.147a.677.677 0 01.445.125.534.534 0 01.147.42c0 .255-.047.421-.14.493a.74.74 0 01-.452.111h-.293a1.786 1.786 0 01-.922-.236 1.26 1.26 0 01-.569-.677 1.443 1.443 0 01-.717.706 2.918 2.918 0 01-1.186.207H2.453a.591.591 0 01-.5-.193 2.14 2.14 0 01-.988.193H.152a.129.129 0 01-.147-.147v-.853a.13.13 0 01.147-.149zm5.283-4a4.978 4.978 0 00-.9.081 7.037 7.037 0 00-.893.216c-.291.087-.566.185-.826.292s-.5.217-.716.327v2.376a3.414 3.414 0 01-.072.71H6.98a2.606 2.606 0 00.68-.075.777.777 0 00.412-.259 1.079 1.079 0 00.2-.516 5.865 5.865 0 00.052-.848 3.994 3.994 0 00-.112-.977 1.693 1.693 0 00-.376-.724 1.7 1.7 0 00-.708-.452 3.425 3.425 0 00-1.108-.151z"/><path data-name="Path 1719" d="M11.213 41.802a.8.8 0 01-.445-.1.479.479 0 01-.148-.412.7.7 0 01.139-.5.668.668 0 01.454-.132h1a.741.741 0 00.54-.171.855.855 0 00.169-.612v-3.954a.13.13 0 01.147-.148h.945a.13.13 0 01.147.148v3.728a.852.852 0 00.364.753 1.667 1.667 0 00.966.251h.175a.664.664 0 01.443.125.516.516 0 01.149.42c0 .255-.047.421-.14.493a.74.74 0 01-.452.111h-.323a1.708 1.708 0 01-.826-.192 1.283 1.283 0 01-.546-.574 1.53 1.53 0 01-1.535.766zm2.552 2.746a.131.131 0 01-.148-.149v-1.077a.132.132 0 01.148-.148h1a.13.13 0 01.147.148v1.077a.13.13 0 01-.147.149zm-1.8 0c-.1 0-.145-.048-.145-.149v-1.077a.13.13 0 01.145-.148h1a.13.13 0 01.145.148v1.077c0 .1-.048.149-.145.149z"/><path data-name="Path 1720" d="M15.669 41.802a.785.785 0 01-.442-.1.472.472 0 01-.148-.412.7.7 0 01.139-.5.662.662 0 01.452-.132h.928a.731.731 0 00.538-.171.847.847 0 00.172-.612v-7.952c0-.1.047-.149.145-.149h.945a.13.13 0 01.148.149v4.5a8.73 8.73 0 011.609-.648 6.251 6.251 0 011.814-.267 4.485 4.485 0 011.711.281 2.8 2.8 0 011.085.76 2.8 2.8 0 01.569 1.114 5.488 5.488 0 01.161 1.343c0 .128 0 .249-.008.363s-.007.208-.007.287a.855.855 0 00.361.754 1.674 1.674 0 00.968.251h.16a.674.674 0 01.445.125.529.529 0 01.145.42c0 .255-.045.421-.139.493a.74.74 0 01-.452.111h-.308a1.788 1.788 0 01-.924-.236 1.274 1.274 0 01-.568-.677 1.448 1.448 0 01-.717.706 2.918 2.918 0 01-1.186.207h-4.958a.594.594 0 01-.5-.193 2.125 2.125 0 01-.988.193zm6.21-5.151a4.963 4.963 0 00-.9.081 7.148 7.148 0 00-.893.216 8.973 8.973 0 00-1.54.619v2.376a3.508 3.508 0 01-.072.71h4.365a2.6 2.6 0 00.678-.075.777.777 0 00.412-.259 1.066 1.066 0 00.2-.516 5.7 5.7 0 00.051-.848 3.875 3.875 0 00-.109-.977 1.693 1.693 0 00-.376-.724 1.708 1.708 0 00-.708-.452 3.405 3.405 0 00-1.108-.151z"/><path data-name="Path 1721" d="M30.424 36.651a2.1 2.1 0 00-.925.205 2.561 2.561 0 00-.744.564.136.136 0 01-.207.013l-.649-.532c-.089-.069-.1-.137-.044-.207a3.353 3.353 0 011.026-.854 3.038 3.038 0 011.494-.34 3.818 3.818 0 011.67.317 2.72 2.72 0 011.028.834 3.194 3.194 0 01.525 1.2 6.735 6.735 0 01.147 1.4c0 .088 0 .172-.008.251s-.005.157-.005.236a.816.816 0 00.388.685 1.709 1.709 0 00.938.231h.163a.669.669 0 01.442.125.524.524 0 01.147.42c0 .255-.045.421-.14.493a.729.729 0 01-.449.111h-.309a1.9 1.9 0 01-.9-.213 1.19 1.19 0 01-.561-.641 1.412 1.412 0 01-.7.662 2.894 2.894 0 01-1.13.192h-4.654a.521.521 0 01-.589-.59c0-.245.045-.4.14-.462a.809.809 0 01.449-.1h4.192a2.57 2.57 0 00.664-.067.728.728 0 00.383-.229.92.92 0 00.179-.434 4.215 4.215 0 00.043-.673 4.99 4.99 0 00-.1-1.056 2.362 2.362 0 00-.329-.828 1.545 1.545 0 00-.614-.532 2.2 2.2 0 00-.961-.181zm-.357-2.33a.132.132 0 01-.149-.148v-1.08a.131.131 0 01.149-.148h1a.131.131 0 01.147.147v1.08a.132.132 0 01-.147.148z"/><path data-name="Path 1722" d="M35.325 41.803a.8.8 0 01-.442-.1.479.479 0 01-.147-.412.69.69 0 01.14-.5.655.655 0 01.449-.132h1a.733.733 0 00.538-.171.848.848 0 00.169-.612v-3.954a.131.131 0 01.148-.148h.946a.129.129 0 01.145.148v3.733a.859.859 0 00.361.753 1.677 1.677 0 00.968.251h.179a.66.66 0 01.441.125.529.529 0 01.148.42c0 .255-.048.421-.141.493a.727.727 0 01-.448.111h-.325a1.71 1.71 0 01-.828-.192 1.28 1.28 0 01-.545-.574 1.531 1.531 0 01-1.534.766zm2.7-7.5a.132.132 0 01-.149-.147v-1.078a.131.131 0 01.149-.147h1a.13.13 0 01.148.147v1.078a.13.13 0 01-.148.147zm-1.8 0a.13.13 0 01-.147-.147v-1.078a.129.129 0 01.147-.147h1a.13.13 0 01.148.147v1.078a.131.131 0 01-.148.147z"/><path data-name="Path 1723" d="M39.784 41.802a.8.8 0 01-.444-.1.483.483 0 01-.147-.412.691.691 0 01.139-.5.66.66 0 01.452-.132h.93a.739.739 0 00.538-.171.862.862 0 00.167-.612v-7.952a.132.132 0 01.149-.149h.944a.13.13 0 01.148.149v8.024a2.091 2.091 0 01-.393 1.404 1.7 1.7 0 01-1.329.452z"/><path data-name="Path 1724" d="M45.967 41.651a.129.129 0 01-.145.147h-.946a.129.129 0 01-.147-.147v-9.736c0-.1.048-.149.147-.149h.946c.1 0 .145.047.145.149z"/><path data-name="Path 1725" d="M49.064 44.739a.132.132 0 01-.148-.148v-.853a.131.131 0 01.148-.148h1.774a2.078 2.078 0 00.545-.067 1.143 1.143 0 00.436-.221 1.018 1.018 0 00.289-.429 1.985 1.985 0 00.1-.688v-.383h-1.579a4.083 4.083 0 01-1.173-.156 2.178 2.178 0 01-.894-.5 2.215 2.215 0 01-.561-.922 4.553 4.553 0 01-.191-1.417 4.409 4.409 0 01.22-1.467 2.877 2.877 0 01.612-1.033 2.531 2.531 0 01.908-.605 3.048 3.048 0 011.108-.2 2.725 2.725 0 012.051.761 3.429 3.429 0 01.738 2.456v3.437a3.3 3.3 0 01-.185 1.18 2.053 2.053 0 01-.514.8 2.071 2.071 0 01-.8.457 3.558 3.558 0 01-1.05.148zm1.6-8.087a1.381 1.381 0 00-1.181.589 2.628 2.628 0 00-.428 1.566 1.966 1.966 0 00.421 1.447 1.745 1.745 0 001.247.4h1.491v-1.935a2.721 2.721 0 00-.363-1.521 1.319 1.319 0 00-1.191-.547z"/><path data-name="Path 1726" d="M64.345 39.283a5.026 5.026 0 01-.127 1.228 1.833 1.833 0 01-.385.773 1.386 1.386 0 01-.657.405 3.311 3.311 0 01-.96.119H58.94a.13.13 0 01-.145-.147v-.853a.13.13 0 01.145-.149h2.82a2.558 2.558 0 00.662-.067.748.748 0 00.384-.22.861.861 0 00.177-.408 3.507 3.507 0 00.045-.636v-1.185q0-1.493-1.683-1.491h-1.71a.133.133 0 01-.149-.149v-.854a.132.132 0 01.149-.147h2.167a2.638 2.638 0 011.831.636 2.547 2.547 0 01.71 1.993z"/><path data-name="Path 1727" d="M66.185 31.919a.13.13 0 01.148-.149h.945a.13.13 0 01.148.149v7.952a.848.848 0 00.169.612.733.733 0 00.538.171h.648a.521.521 0 01.592.588c0 .247-.048.4-.143.465a.812.812 0 01-.449.1h-.869a1.7 1.7 0 01-1.329-.452 2.083 2.083 0 01-.4-1.407z"/><path data-name="Path 1728" d="M68.782 41.803a.786.786 0 01-.441-.1.472.472 0 01-.151-.412.689.689 0 01.143-.5.652.652 0 01.449-.132h.93a.733.733 0 00.538-.171.86.86 0 00.171-.612v-3.963a.129.129 0 01.147-.145h.945a.13.13 0 01.148.145v.5a8.678 8.678 0 011.607-.648 6.278 6.278 0 011.814-.267 4.507 4.507 0 011.713.281 2.8 2.8 0 011.082.76 2.735 2.735 0 01.569 1.114 5.423 5.423 0 01.164 1.343c0 .128 0 .249-.011.363s-.005.208-.005.287a.858.858 0 00.361.754 1.679 1.679 0 00.966.251h.161a.674.674 0 01.445.125.529.529 0 01.147.42c0 .255-.048.421-.141.493a.725.725 0 01-.451.111h-.309a1.781 1.781 0 01-.921-.236 1.271 1.271 0 01-.569-.677 1.456 1.456 0 01-.716.706 2.936 2.936 0 01-1.189.207h-4.954a.592.592 0 01-.5-.193 2.139 2.139 0 01-.989.193zm6.211-5.151a5 5 0 00-.9.081 7.183 7.183 0 00-.892.216 9.188 9.188 0 00-1.539.619v2.376a3.326 3.326 0 01-.073.71h4.365a2.577 2.577 0 00.677-.075.784.784 0 00.415-.259 1.093 1.093 0 00.2-.516 6.091 6.091 0 00.051-.848 3.932 3.932 0 00-.111-.977 1.72 1.72 0 00-.374-.724 1.721 1.721 0 00-.709-.452 3.405 3.405 0 00-1.11-.152z"/><path data-name="Path 1729" d="M80.189 41.803a.8.8 0 01-.444-.1.475.475 0 01-.147-.412.7.7 0 01.139-.5.662.662 0 01.452-.132h1a.741.741 0 00.54-.171.86.86 0 00.171-.612v-3.954a.129.129 0 01.145-.148h.946a.13.13 0 01.147.148v3.733a.856.856 0 00.361.753 1.67 1.67 0 00.966.251h.177a.667.667 0 01.442.125.525.525 0 01.148.42c0 .255-.047.421-.143.493a.724.724 0 01-.448.111h-.324a1.715 1.715 0 01-.826-.192 1.283 1.283 0 01-.546-.574 1.527 1.527 0 01-1.534.766zm2.7-7.5a.13.13 0 01-.145-.147v-1.078a.129.129 0 01.145-.147h1a.129.129 0 01.147.147v1.078a.129.129 0 01-.147.147zm-1.8 0a.132.132 0 01-.149-.147v-1.078a.131.131 0 01.149-.147h1a.131.131 0 01.149.147v1.078a.132.132 0 01-.149.147z"/><path data-name="Path 1730" d="M84.854 41.803a.736.736 0 01-.45-.111c-.093-.072-.14-.239-.14-.493a.516.516 0 01.149-.42.66.66 0 01.441-.125h1.667a3.783 3.783 0 01-.428-1.935 4.4 4.4 0 01.215-1.454 2.634 2.634 0 01.6-1 2.4 2.4 0 01.894-.577 3.271 3.271 0 011.113-.184 2.77 2.77 0 012.063.761 3.387 3.387 0 01.754 2.456 4.533 4.533 0 01-.2 1.431 2.431 2.431 0 01-.56.952 2.2 2.2 0 01-.885.532 3.8 3.8 0 01-1.173.169zm4.057-5.151a1.376 1.376 0 00-1.18.533 2.349 2.349 0 00-.4 1.446 2.534 2.534 0 00.375 1.558 1.46 1.46 0 001.2.465 1.5 1.5 0 001.2-.437 2.3 2.3 0 00.377-1.5 2.642 2.642 0 00-.377-1.521 1.351 1.351 0 00-1.194-.545zm.369-2.346a.13.13 0 01-.147-.147v-1.078a.13.13 0 01.147-.147h1a.13.13 0 01.148.147v1.078a.13.13 0 01-.148.147zm-1.8 0a.131.131 0 01-.149-.147v-1.078a.131.131 0 01.149-.147h1a.129.129 0 01.148.147v1.078a.13.13 0 01-.148.147z"/><path data-name="Path 1731" d="M97.499 40.651h1.729a.732.732 0 00.537-.171.861.861 0 00.171-.612v-7.952a.13.13 0 01.147-.149h.944a.131.131 0 01.149.149v8.024a2.083 2.083 0 01-.4 1.407 1.7 1.7 0 01-1.33.452h-6.092a.129.129 0 01-.145-.147v-.853c0-.1.048-.149.145-.149h2.91v-6.655a.129.129 0 01.145-.148h.945a.13.13 0 01.147.148z"/><path data-name="Path 1732" d="M104.477 41.651a.131.131 0 01-.148.147h-.944a.13.13 0 01-.147-.147v-9.736a.13.13 0 01.147-.149h.944a.131.131 0 01.148.149z"/><path data-name="Path 1733" d="M112.538 41.904a2.793 2.793 0 01-2.066-.753 3.337 3.337 0 01-.753-2.434 3.391 3.391 0 01.753-2.456 2.781 2.781 0 012.066-.76 2.784 2.784 0 012.067.76 3.4 3.4 0 01.753 2.456 4.618 4.618 0 01-.2 1.445 2.582 2.582 0 01-.562.989 2.141 2.141 0 01-.884.566 3.419 3.419 0 01-1.174.187zm0-5.253a1.354 1.354 0 00-1.2.546 2.627 2.627 0 00-.377 1.519 2.533 2.533 0 00.377 1.55 1.422 1.422 0 001.2.486 1.425 1.425 0 001.2-.486 2.551 2.551 0 00.377-1.55 2.648 2.648 0 00-.377-1.519 1.356 1.356 0 00-1.2-.546zm.4-2.346a.13.13 0 01-.147-.147V33.08a.129.129 0 01.147-.147h1a.129.129 0 01.148.147v1.078a.13.13 0 01-.148.147zm-1.8 0a.13.13 0 01-.147-.147V33.08a.13.13 0 01.147-.147h1a.129.129 0 01.147.147v1.078a.129.129 0 01-.147.147z"/><path data-name="Path 1734" d="M116.316 44.738a.13.13 0 01-.147-.148v-.853a.129.129 0 01.147-.148h.34q1.194 0 1.2-1.256v-6.417a.13.13 0 01.148-.148h.942a.13.13 0 01.148.148v6.388a2.515 2.515 0 01-.6 1.815 2.378 2.378 0 01-1.773.618z"/><path data-name="Path 1735" d="M122.325 41.651a.131.131 0 01-.148.147h-.944a.131.131 0 01-.149-.147v-9.736a.131.131 0 01.149-.149h.944a.131.131 0 01.148.149z"/><path data-name="Path 1736" d="M123.506 44.742a.13.13 0 01-.147-.148v-.852a.129.129 0 01.147-.148h.34q1.2 0 1.2-1.256v-6.417a.129.129 0 01.147-.148h.944a.131.131 0 01.149.148v6.388a2.493 2.493 0 01-.605 1.815 2.371 2.371 0 01-1.77.618zm1.669-10.433a.131.131 0 01-.149-.147v-1.078a.131.131 0 01.149-.147h1a.128.128 0 01.145.147v1.078a.129.129 0 01-.145.147z"/><path data-name="Path 1737" d="M129.306 44.739a.132.132 0 01-.148-.148v-.853a.131.131 0 01.148-.148h1.773a2.093 2.093 0 00.545-.067 1.144 1.144 0 00.436-.221 1.016 1.016 0 00.288-.429 1.985 1.985 0 00.1-.688v-.383h-1.577a4.125 4.125 0 01-1.177-.156 2.193 2.193 0 01-.892-.5 2.189 2.189 0 01-.561-.922 4.513 4.513 0 01-.191-1.417 4.41 4.41 0 01.22-1.467 2.861 2.861 0 01.613-1.033 2.486 2.486 0 01.908-.605 3.041 3.041 0 011.106-.2 2.729 2.729 0 012.051.761 3.429 3.429 0 01.738 2.456v3.437a3.362 3.362 0 01-.184 1.18 2.058 2.058 0 01-.517.8 2.066 2.066 0 01-.805.457 3.527 3.527 0 01-1.048.148zm1.594-8.087a1.379 1.379 0 00-1.181.589 2.619 2.619 0 00-.428 1.566 1.972 1.972 0 00.42 1.447 1.747 1.747 0 001.248.4h1.491v-1.935a2.722 2.722 0 00-.361-1.521 1.316 1.316 0 00-1.189-.547z"/></g><g fill="#a3a2a2"><path data-name="Path 1738" d="M.012 48.182a.075.075 0 01.084-.085h.75a.138.138 0 01.144.085l1.575 3.531h.033l1.551-3.531a.137.137 0 01.143-.085h.741a.075.075 0 01.085.085v5.56a.074.074 0 01-.085.084h-.732a.074.074 0 01-.085-.084v-3.5h-.033l-1.214 2.7a.167.167 0 01-.159.109h-.49a.17.17 0 01-.16-.109l-1.214-2.7H.914v3.5a.075.075 0 01-.085.084H.095a.074.074 0 01-.084-.084z"/><path data-name="Path 1739" d="M6.383 48.182a.075.075 0 01.084-.085h.825a.074.074 0 01.084.085v5.56a.073.073 0 01-.084.084h-.825a.074.074 0 01-.084-.084z"/><path data-name="Path 1740" d="M8.638 48.182a.076.076 0 01.085-.085h.774a.159.159 0 01.145.085l2.334 3.954h.035v-3.954a.075.075 0 01.084-.085h.733c.055 0 .081.028.081.085v5.56c0 .057-.027.084-.081.084h-.765a.158.158 0 01-.145-.084L9.574 49.8h-.036v3.942c0 .057-.027.084-.081.084h-.734a.075.075 0 01-.085-.084z"/><path data-name="Path 1741" d="M14.18 48.182a.075.075 0 01.085-.085h.824a.075.075 0 01.085.085v5.56a.074.074 0 01-.085.084h-.824a.074.074 0 01-.085-.084z"/><path data-name="Path 1742" d="M18.242 53.919a3.321 3.321 0 01-.624-.057 3.688 3.688 0 01-.576-.16 2.926 2.926 0 01-.508-.24 2.34 2.34 0 01-.4-.3c-.047-.044-.053-.088-.017-.127l.524-.608c.039-.043.079-.047.116-.007a3.134 3.134 0 00.311.219 2.421 2.421 0 00.369.195 2.734 2.734 0 00.417.139 1.866 1.866 0 00.464.055 1.215 1.215 0 00.8-.232.732.732 0 00.281-.591.643.643 0 00-.229-.51 1.6 1.6 0 00-.816-.281l-.3-.043a2.384 2.384 0 01-1.281-.52 1.415 1.415 0 01-.446-1.114 1.815 1.815 0 01.135-.708 1.48 1.48 0 01.389-.548 1.718 1.718 0 01.61-.351 2.449 2.449 0 01.8-.123 3.284 3.284 0 011.024.157 2.7 2.7 0 01.829.417.079.079 0 01.017.117l-.4.624a.08.08 0 01-.117.024 3.087 3.087 0 00-.684-.337 2.2 2.2 0 00-.69-.108.957.957 0 00-.67.213.725.725 0 00-.232.552.615.615 0 00.237.493 1.649 1.649 0 00.817.281l.3.043a2.333 2.333 0 011.273.518 1.473 1.473 0 01.437 1.142 1.84 1.84 0 01-.135.709 1.474 1.474 0 01-.408.562 1.99 1.99 0 01-.677.371 2.954 2.954 0 01-.94.134z"/><path data-name="Path 1743" d="M22.659 53.828c-.059 0-.087-.027-.087-.084v-4.7c0-.035-.015-.051-.051-.051h-1.5c-.057 0-.084-.028-.084-.087v-.722a.074.074 0 01.084-.085h4.093a.075.075 0 01.087.085v.722a.076.076 0 01-.087.087h-1.5a.044.044 0 00-.049.051v4.7a.075.075 0 01-.085.084z"/><path data-name="Path 1744" d="M29.271 53.828a.122.122 0 01-.127-.084l-1.1-2.232h-.986a.047.047 0 00-.052.051v2.182c0 .057-.027.084-.083.084h-.828c-.056 0-.083-.027-.083-.084v-5.56c0-.057.027-.085.083-.085h2.218a2.019 2.019 0 01.729.128 1.818 1.818 0 01.577.348 1.6 1.6 0 01.384.54 1.725 1.725 0 01.139.7 1.653 1.653 0 01-.295.978 1.673 1.673 0 01-.794.6l1.207 2.334a.072.072 0 01.005.077.075.075 0 01-.065.032zm-.988-3.208a.914.914 0 00.637-.22.761.761 0 00.24-.59.768.768 0 00-.24-.6.913.913 0 00-.637-.219h-1.221a.046.046 0 00-.052.051v1.527a.046.046 0 00.052.049z"/><path data-name="Path 1745" d="M32.445 53.828a.073.073 0 01-.084-.084v-2.258l-1.661-3.3c-.023-.057 0-.085.068-.085h.852a.12.12 0 01.117.085l1.12 2.224h.028l1.128-2.224a.12.12 0 01.117-.085h.818c.067 0 .088.028.067.085l-1.661 3.3v2.258a.074.074 0 01-.084.084z"/><path data-name="Path 1746" d="M39.747 53.919a2.27 2.27 0 01-1.274-.348 1.869 1.869 0 01-.75-1.033 2.5 2.5 0 01-.069-.269 2.244 2.244 0 01-.048-.312c-.012-.117-.019-.256-.025-.417s-.009-.353-.009-.577 0-.417.009-.576.013-.3.025-.417a2.2 2.2 0 01.048-.313 2.605 2.605 0 01.069-.271 1.863 1.863 0 01.75-1.03 2.272 2.272 0 011.274-.351 2.3 2.3 0 011.282.351 1.884 1.884 0 01.748 1.03c.028.091.051.181.072.271a2.71 2.71 0 01.045.313c.012.116.021.256.025.417s.009.352.009.576 0 .417-.009.577-.013.3-.025.417a2.772 2.772 0 01-.045.312c-.021.089-.044.18-.072.269a1.891 1.891 0 01-.748 1.033 2.3 2.3 0 01-1.282.348zm0-.892a1.11 1.11 0 00.689-.2 1.094 1.094 0 00.379-.55 1.2 1.2 0 00.045-.179c.008-.067.019-.151.027-.252s.016-.224.021-.365.009-.317.009-.52 0-.375-.009-.518-.012-.267-.021-.365-.019-.185-.027-.255a1.136 1.136 0 00-.045-.175 1.087 1.087 0 00-.379-.552 1.093 1.093 0 00-.689-.2 1.078 1.078 0 00-.686.2 1.1 1.1 0 00-.376.552 1.315 1.315 0 00-.045.175 2.24 2.24 0 00-.036.255c-.007.1-.013.224-.015.365s-.007.316-.007.518 0 .375.007.52.008.264.015.365a2.1 2.1 0 00.036.252 1.387 1.387 0 00.045.179 1.107 1.107 0 00.376.55 1.094 1.094 0 00.686.2z"/><path data-name="Path 1747" d="M43.023 48.182a.075.075 0 01.085-.085h3.588a.074.074 0 01.084.085v.722c0 .059-.027.087-.084.087h-2.63c-.033 0-.048.016-.048.051V50.5c0 .033.015.051.048.051h2.218c.056 0 .083.028.083.085v.722c0 .057-.027.084-.083.084h-2.218c-.033 0-.048.017-.048.052v2.248a.075.075 0 01-.085.084h-.825a.074.074 0 01-.085-.084z"/><path data-name="Path 1748" d="M49.738 48.182a.075.075 0 01.084-.085h3.589a.075.075 0 01.084.085v.722c0 .059-.028.087-.084.087h-2.627c-.035 0-.052.016-.052.051v1.4a.046.046 0 00.052.052H53a.075.075 0 01.084.084v.726a.073.073 0 01-.084.081h-2.215a.046.046 0 00-.052.053v1.449a.046.046 0 00.052.051h2.627a.074.074 0 01.084.084v.724a.074.074 0 01-.084.084h-3.589a.074.074 0 01-.084-.084z"/><path data-name="Path 1749" d="M54.524 52.513a2.386 2.386 0 01-.072-.265 2.9 2.9 0 01-.048-.3c-.009-.116-.02-.251-.025-.405s-.007-.348-.007-.577 0-.416.007-.573.016-.293.025-.408a3.02 3.02 0 01.048-.305 2.533 2.533 0 01.072-.264 1.879 1.879 0 01.738-1.057 2.189 2.189 0 011.25-.351 2.131 2.131 0 011.192.328 1.972 1.972 0 01.746.9.07.07 0 01-.041.1l-.718.345c-.049.028-.085.016-.108-.041a1.633 1.633 0 00-.391-.522.992.992 0 00-.68-.219 1 1 0 00-.661.2 1.191 1.191 0 00-.368.556c-.016.061-.033.124-.047.187a1.821 1.821 0 00-.033.24c-.008.1-.013.217-.017.359s0 .313 0 .521v.526c0 .137.009.256.017.357a1.99 1.99 0 00.033.241c.013.067.031.125.047.181a1.188 1.188 0 00.368.557 1.019 1.019 0 00.661.2 1 1 0 00.68-.219 1.639 1.639 0 00.391-.524q.034-.084.108-.04l.718.345c.043.016.057.049.041.1a1.972 1.972 0 01-.746.9 2.13 2.13 0 01-1.192.327 2.187 2.187 0 01-1.25-.348 1.882 1.882 0 01-.738-1.052z"/><path data-name="Path 1750" d="M61.393 53.919a2.269 2.269 0 01-1.273-.348 1.861 1.861 0 01-.749-1.033 2.983 2.983 0 01-.073-.269 2.749 2.749 0 01-.047-.312c-.012-.117-.02-.256-.025-.417s-.009-.353-.009-.577 0-.417.009-.576.013-.3.025-.417a2.686 2.686 0 01.047-.313c.02-.089.044-.18.073-.271a1.855 1.855 0 01.749-1.03 2.27 2.27 0 011.273-.351 2.291 2.291 0 011.281.351 1.869 1.869 0 01.75 1.03c.027.091.052.181.069.271a2.427 2.427 0 01.047.313c.012.116.021.256.028.417s.008.352.008.576-.005.417-.008.577-.016.3-.028.417a2.476 2.476 0 01-.047.312 2.95 2.95 0 01-.069.269 1.876 1.876 0 01-.75 1.033 2.29 2.29 0 01-1.281.348zm0-.892a1.113 1.113 0 00.689-.2 1.107 1.107 0 00.381-.55 1.719 1.719 0 00.041-.179c.009-.067.02-.151.028-.252s.016-.224.023-.365.008-.317.008-.52 0-.375-.008-.518-.013-.267-.023-.365-.019-.185-.028-.255a1.626 1.626 0 00-.041-.175 1.1 1.1 0 00-.381-.552 1.1 1.1 0 00-.689-.2 1.087 1.087 0 00-.688.2 1.123 1.123 0 00-.375.552 1.535 1.535 0 00-.047.175c-.012.069-.024.153-.033.255s-.013.224-.017.365 0 .316 0 .518v.52a4.002 4.002 0 00.05.617 1.622 1.622 0 00.047.179 1.131 1.131 0 00.375.55 1.1 1.1 0 00.688.2z"/><path data-name="Path 1751" d="M64.669 48.182a.075.075 0 01.084-.085h.777a.157.157 0 01.143.085l2.334 3.954h.036v-3.954c0-.057.028-.085.081-.085h.736a.075.075 0 01.084.085v5.56a.074.074 0 01-.084.084h-.766a.156.156 0 01-.144-.084L65.606 49.8h-.035v3.942c0 .057-.027.084-.081.084h-.736a.074.074 0 01-.084-.084z"/><path data-name="Path 1752" d="M72.214 53.919a2.273 2.273 0 01-1.274-.348 1.882 1.882 0 01-.75-1.033 3.337 3.337 0 01-.071-.269 2.743 2.743 0 01-.047-.312c-.012-.117-.019-.256-.025-.417s-.008-.353-.008-.577 0-.417.008-.576.013-.3.025-.417a2.68 2.68 0 01.047-.313c.019-.089.044-.18.071-.271a1.875 1.875 0 01.75-1.03 2.275 2.275 0 011.274-.351 2.288 2.288 0 011.281.351 1.865 1.865 0 01.748 1.03 2.647 2.647 0 01.073.271 2.71 2.71 0 01.045.313c.012.116.021.256.027.417s.009.352.009.576 0 .417-.009.577-.015.3-.027.417a2.772 2.772 0 01-.045.312 2.535 2.535 0 01-.073.269 1.872 1.872 0 01-.748 1.033 2.287 2.287 0 01-1.281.348zm0-.892a1.11 1.11 0 00.689-.2 1.119 1.119 0 00.379-.55 1.227 1.227 0 00.041-.179c.012-.067.023-.151.031-.252s.016-.224.02-.365.011-.317.011-.52 0-.375-.011-.518-.011-.267-.02-.365-.019-.185-.031-.255a1.165 1.165 0 00-.041-.175 1.111 1.111 0 00-.379-.552 1.094 1.094 0 00-.689-.2 1.075 1.075 0 00-.686.2 1.108 1.108 0 00-.376.552 1.934 1.934 0 00-.047.175 2.051 2.051 0 00-.032.255c-.009.1-.016.224-.017.365s-.005.316-.005.518 0 .375.005.52.008.264.017.365a1.938 1.938 0 00.032.252c.015.068.031.128.047.179a1.116 1.116 0 00.376.55 1.092 1.092 0 00.686.2z"/><path data-name="Path 1753" d="M75.49 48.182a.075.075 0 01.084-.085h.749a.136.136 0 01.144.085l1.577 3.531h.033l1.55-3.531a.138.138 0 01.144-.085h.74a.075.075 0 01.085.085v5.56c0 .057-.029.084-.085.084h-.732a.074.074 0 01-.084-.084v-3.5h-.033l-1.214 2.7a.166.166 0 01-.159.109h-.49a.17.17 0 01-.16-.109l-1.214-2.7h-.033v3.5a.074.074 0 01-.084.084h-.733a.074.074 0 01-.084-.084z"/><path data-name="Path 1754" d="M83.074 53.828a.076.076 0 01-.087-.084v-2.258l-1.658-3.3c-.024-.057 0-.085.067-.085h.852a.116.116 0 01.116.085l1.12 2.224h.029l1.128-2.224a.121.121 0 01.119-.085h.817c.067 0 .089.028.067.085l-1.659 3.3v2.258a.074.074 0 01-.084.084z"/><path data-name="Path 1755" d="M91.288 53.659a3.345 3.345 0 01-1.33.245 1.73 1.73 0 01-1.327-.5 1.9 1.9 0 01-.466-1.363 1.909 1.909 0 01.57-1.391 1.522 1.522 0 01-.494-1.077 1.361 1.361 0 01.479-1.044 1.811 1.811 0 011.27-.433 2.171 2.171 0 011.367.417l-.408.7a1.538 1.538 0 00-.841-.341.976.976 0 00-.67.209.721.721 0 00-.235.568.876.876 0 00.368.7h1.275v-.642l.958-.357v1.01h.958v.81h-.958v1.112a1.1 1.1 0 00.121.605.462.462 0 00.4.164 1.3 1.3 0 00.53-.12v.841a2.86 2.86 0 01-.864.127 1.17 1.17 0 01-.703-.24zm-.443-1.1v-1.383h-1.377a1.29 1.29 0 00-.307.84.928.928 0 001.057 1.041 1.433 1.433 0 00.653-.124 2.013 2.013 0 01-.025-.373z"/><path data-name="Path 1756" d="M95.991 53.828a.075.075 0 01-.085-.084v-5.56a.076.076 0 01.085-.085h2.151a2.181 2.181 0 01.762.132 1.752 1.752 0 01.6.363 1.521 1.521 0 01.388.558 1.823 1.823 0 01.141.725 1.83 1.83 0 01-.141.733 1.526 1.526 0 01-.388.56 1.776 1.776 0 01-.6.364 2.211 2.211 0 01-.762.131h-1.189c-.035 0-.051.015-.051.051v2.03a.075.075 0 01-.085.084zm2.091-3.067a.974.974 0 00.7-.24.845.845 0 00.255-.645.856.856 0 00-.255-.641.969.969 0 00-.7-.243h-1.129a.044.044 0 00-.051.051v1.667a.044.044 0 00.051.051z"/><path data-name="Path 1757" d="M100.947 48.182a.076.076 0 01.085-.085h.825a.075.075 0 01.085.085v4.7a.045.045 0 00.051.051h2.627c.059 0 .085.027.085.084v.724c0 .057-.027.084-.085.084h-3.588a.075.075 0 01-.085-.084z"/><path data-name="Path 1758" d="M107.023 48.182a.106.106 0 01.109-.085h.777a.107.107 0 01.109.085l1.938 5.56c.017.057-.005.084-.06.084h-.826a.1.1 0 01-.108-.084l-.38-1.113h-2.159l-.379 1.113a.1.1 0 01-.109.084h-.816c-.057 0-.076-.027-.06-.084zm1.256 3.563l-.76-2.223h-.024l-.766 2.223z"/><path data-name="Path 1759" d="M110.74 48.182a.074.074 0 01.083-.085h.778a.156.156 0 01.141.085l2.336 3.954h.033v-3.954a.076.076 0 01.085-.085h.732a.076.076 0 01.085.085v5.56a.075.075 0 01-.085.084h-.764a.158.158 0 01-.145-.084l-2.346-3.942h-.035v3.942c0 .057-.027.084-.083.084h-.734a.073.073 0 01-.083-.084z"/><path data-name="Path 1760" d="M116.279 48.182a.075.075 0 01.084-.085h.776a.158.158 0 01.143.085l2.336 3.954h.032v-3.954a.075.075 0 01.084-.085h.733a.076.076 0 01.085.085v5.56a.075.075 0 01-.085.084h-.765a.162.162 0 01-.145-.084l-2.342-3.942h-.035v3.942a.073.073 0 01-.083.084h-.733a.074.074 0 01-.084-.084z"/><path data-name="Path 1761" d="M121.817 48.182a.074.074 0 01.083-.085h.829c.053 0 .081.028.081.085v5.56c0 .057-.028.084-.081.084h-.831a.073.073 0 01-.083-.084z"/><path data-name="Path 1762" d="M124.075 48.182a.075.075 0 01.085-.085h.777a.156.156 0 01.141.085l2.336 3.954h.033v-3.954a.075.075 0 01.084-.085h.733a.075.075 0 01.084.085v5.56a.074.074 0 01-.084.084h-.766a.15.15 0 01-.141-.084L125.01 49.8h-.031v3.942a.075.075 0 01-.085.084h-.732a.074.074 0 01-.085-.084z"/><path data-name="Path 1763" d="M129.597 52.538a3.346 3.346 0 01-.072-.269 3.111 3.111 0 01-.045-.312c-.012-.117-.02-.256-.025-.417s-.009-.353-.009-.577 0-.417.009-.576.013-.3.025-.417a3.03 3.03 0 01.045-.313c.02-.089.044-.18.072-.271a1.875 1.875 0 01.75-1.03 2.329 2.329 0 011.3-.351 2.476 2.476 0 01.734.1 2.262 2.262 0 01.581.265 1.618 1.618 0 01.424.387 2.093 2.093 0 01.26.46.084.084 0 01-.033.117l-.709.313a.083.083 0 01-.109-.043 1.481 1.481 0 00-.465-.526 1.2 1.2 0 00-.69-.181 1.116 1.116 0 00-.7.2 1.1 1.1 0 00-.379.552 1.3 1.3 0 00-.047.175 1.645 1.645 0 00-.032.255c-.012.1-.015.224-.019.365s-.005.316-.005.518 0 .375.005.52.007.264.019.365a1.565 1.565 0 00.032.252 1.373 1.373 0 00.047.179 1.111 1.111 0 00.379.55 1.133 1.133 0 00.7.2 1.268 1.268 0 00.673-.18.968.968 0 00.414-.536 2.024 2.024 0 00.067-.317 2.822 2.822 0 00.025-.424.046.046 0 00-.052-.052h-.941c-.059 0-.085-.027-.085-.083v-.676c0-.056.027-.083.085-.083h1.9a.074.074 0 01.084.083v.5c0 .236-.012.466-.035.694a2.921 2.921 0 01-.1.56 1.922 1.922 0 01-.746 1.042 2.217 2.217 0 01-1.277.364 2.318 2.318 0 01-1.3-.348 1.882 1.882 0 01-.755-1.034z"/></g></svg>