<svg xmlns="http://www.w3.org/2000/svg" width="1097.211" height="128.91"><defs><clipPath id="a"><path data-name="Path 1844" d="M0 128.91V.003h1097.211v128.91z" fill="none" stroke="#000" stroke-linejoin="bevel" stroke-miterlimit="10" stroke-width=".501" clip-rule="evenodd"/></clipPath><clipPath id="b"><path data-name="Path 1816" d="M0 229.442V0h675.018v229.442z" fill="none" stroke="#000" stroke-linejoin="bevel" stroke-miterlimit="10" stroke-width=".501" clip-rule="evenodd"/></clipPath></defs><g data-name="Group 1000" clip-path="url(#a)"><path data-name="Path 1814" d="M886.115-105.467H211.097v229.442h675.018z" fill="none"/><g data-name="Group 990" clip-path="url(#b)" transform="translate(211.097 -105.467)"><path data-name="Path 1815" d="M157.403-10.3l228.3 164.639c7.3 5.262 7.3 13.791 0 19.052l-283.309 204.3" fill="none" stroke="#009e92" stroke-miterlimit="10" stroke-width=".434"/></g><path data-name="Path 1817" d="M886.115-105.467H211.097v229.442h675.018z" fill="none"/><g data-name="Group 991" clip-path="url(#b)" transform="translate(211.097 -105.467)"><path data-name="Path 1818" d="M63.197-7.99l201.078 145c1.19.857.347 2.323-1.335 2.323h-392.429" fill="none" stroke="#009e92" stroke-miterlimit="10" stroke-width=".434"/></g><path data-name="Path 1820" d="M886.115-105.467H211.097v229.442h675.018z" fill="none"/><g data-name="Group 992" clip-path="url(#b)" transform="translate(211.097 -105.467)"><path data-name="Path 1821" d="M111.162 301.15l153.112-110.415c1.19-.856.347-2.322-1.335-2.322h-366.967" fill="none" stroke="#009e92" stroke-miterlimit="10" stroke-width=".434"/></g><path data-name="Path 1823" d="M886.115-105.467H211.097v229.442h675.018z" fill="none"/><g data-name="Group 993" clip-path="url(#b)" transform="translate(211.097 -105.467)"><path data-name="Path 1824" d="M688.957-45.24l-228.3 164.632c-7.3 5.261-19.124 5.261-26.42 0l-283.309-204.3" fill="none" stroke="#009e92" stroke-miterlimit="10" stroke-width=".434"/></g><path data-name="Path 1826" d="M886.115-105.467H211.097v229.442h675.018z" fill="none"/><g data-name="Group 994" clip-path="url(#b)" transform="translate(211.097 -105.467)"><path data-name="Path 1827" d="M577.322-34.97l-92.633 66.8c-1.19.858-3.223.251-3.223-.962v-222.7" fill="none" stroke="#009e92" stroke-miterlimit="10" stroke-width=".434"/></g><path data-name="Path 1829" d="M886.115-105.467H211.097v229.442h675.018z" fill="none"/><g data-name="Group 995" clip-path="url(#b)" transform="translate(211.097 -105.467)"><path data-name="Path 1830" d="M317.55-34.97l92.634 66.8c1.188.858 3.221.251 3.221-.962v-157.8" fill="none" stroke="#009e92" stroke-miterlimit="10" stroke-width=".434"/></g><path data-name="Path 1832" d="M886.115-105.467H211.097v229.442h675.018z" fill="none"/><g data-name="Group 996" clip-path="url(#b)" transform="translate(211.097 -105.467)"><path data-name="Path 1833" d="M737.42 338.07l-228.3-164.634c-7.3-5.261-7.3-13.791 0-19.052L792.427-49.91" fill="none" stroke="#009e92" stroke-miterlimit="10" stroke-width=".434"/></g><path data-name="Path 1835" d="M886.115-105.467H211.097v229.442h675.018z" fill="none"/><g data-name="Group 997" clip-path="url(#b)" transform="translate(211.097 -105.467)"><path data-name="Path 1836" d="M782.314 300.214L630.547 190.77c-1.188-.858-.347-2.323 1.335-2.323H940.71" fill="none" stroke="#009e92" stroke-miterlimit="10" stroke-width=".434"/></g><path data-name="Path 1838" d="M886.115-105.467H211.097v229.442h675.018z" fill="none"/><g data-name="Group 998" clip-path="url(#b)" transform="translate(211.097 -105.467)"><path data-name="Path 1839" d="M890.362-50.31L630.547 137.045c-1.188.857-.347 2.323 1.335 2.323h403.2" fill="none" stroke="#009e92" stroke-miterlimit="10" stroke-width=".434"/></g><path data-name="Path 1841" d="M886.115-105.467H211.097v229.442h675.018z" fill="none"/><g data-name="Group 999" clip-path="url(#b)" transform="translate(211.097 -105.467)"><path data-name="Path 1842" d="M205.866 373.023l228.3-164.634c7.3-5.262 19.124-5.262 26.42 0l283.309 204.3" fill="none" stroke="#009e92" stroke-miterlimit="10" stroke-width=".434"/></g></g></svg>